<svg width="60" height="60" viewBox="0 0 60 60" fill="none" xmlns="http://www.w3.org/2000/svg">
<g clip-path="url(#clip0_236_107)">
<path fill-rule="evenodd" clip-rule="evenodd" d="M29.5 53.7987C19.8363 53.7987 11.5808 52.3894 11.5808 46.7462C11.5808 41.103 19.7826 36.1904 29.5 36.1904C39.1638 36.1904 47.4193 41.057 47.4193 46.6973C47.4193 52.3376 39.2175 53.7987 29.5 53.7987Z" fill="white" stroke="white" stroke-width="1.5" stroke-linecap="round" stroke-linejoin="round"/>
<path fill-rule="evenodd" clip-rule="evenodd" d="M29.5 28.1441C35.843 28.1441 40.9867 23.1884 40.9867 17.0735C40.9867 10.9586 35.843 6 29.5 6C23.1569 6 18.0132 10.9586 18.0132 17.0735C17.9954 23.1654 23.0973 28.124 29.4194 28.1441H29.5Z" fill="white" stroke="white" stroke-width="1.5" stroke-linecap="round" stroke-linejoin="round"/>
<path d="M48.5644 25.1041C52.255 24.1521 54.976 20.9077 54.976 17.0449C54.976 13.0153 52.0134 9.65012 48.0691 8.87354" stroke="white" stroke-width="1.5" stroke-linecap="round" stroke-linejoin="round"/>
<path d="M50.2976 34.1724C55.5308 34.1724 60.0001 37.5922 60.0001 40.6468C60.0001 42.4444 58.4576 44.4031 56.1185 44.9324" stroke="white" stroke-width="1.5" stroke-linecap="round" stroke-linejoin="round"/>
<path d="M10.4391 25.1041C6.74542 24.1521 4.02441 20.9077 4.02441 17.0449C4.02441 13.0153 6.99007 9.65012 10.9313 8.87354" stroke="white" stroke-width="1.5" stroke-linecap="round" stroke-linejoin="round"/>
<path d="M8.70253 34.1724C3.46937 34.1724 -1 37.5922 -1 40.6468C-1 42.4444 0.542499 44.4031 2.88459 44.9324" stroke="white" stroke-width="1.5" stroke-linecap="round" stroke-linejoin="round"/>
</g>
<defs>
<clipPath id="clip0_236_107">
<rect width="60" height="60" fill="white"/>
</clipPath>
</defs>
</svg>
