<svg width="18" height="18" viewBox="0 0 18 18" fill="none" xmlns="http://www.w3.org/2000/svg">
<path d="M5.125 15V5.65625H2.21875V15H5.125ZM3.65625 4.40625C4.59375 4.40625 5.34375 3.625 5.34375 2.6875C5.34375 1.78125 4.59375 1.03125 3.65625 1.03125C2.75 1.03125 2 1.78125 2 2.6875C2 3.625 2.75 4.40625 3.65625 4.40625ZM15.9688 15H16V9.875C16 7.375 15.4375 5.4375 12.5 5.4375C11.0938 5.4375 10.1562 6.21875 9.75 6.9375H9.71875V5.65625H6.9375V15H9.84375V10.375C9.84375 9.15625 10.0625 8 11.5625 8C13.0625 8 13.0938 9.375 13.0938 10.4688V15H15.9688Z" fill="#4C88CC"/>
</svg>
