<svg width="18" height="18" viewBox="0 0 18 18" fill="none" xmlns="http://www.w3.org/2000/svg">
<path d="M8.89404 6.46777C8.24758 6.46777 7.62759 6.72458 7.17047 7.1817C6.71335 7.63882 6.45654 8.25881 6.45654 8.90527C6.45654 9.55174 6.71335 10.1717 7.17047 10.6288C7.62759 11.086 8.24758 11.3428 8.89404 11.3428C9.54051 11.3428 10.1605 11.086 10.6176 10.6288C11.0747 10.1717 11.3315 9.55174 11.3315 8.90527C11.3315 8.25881 11.0747 7.63882 10.6176 7.1817C10.1605 6.72458 9.54051 6.46777 8.89404 6.46777Z" fill="#4C88CC"/>
<path fill-rule="evenodd" clip-rule="evenodd" d="M4.97165 2.21673C7.57867 1.92776 10.2096 1.92776 12.8167 2.21673C14.2409 2.37573 15.3892 3.49698 15.5564 4.92648C15.8656 7.56997 15.8656 10.2405 15.5564 12.884C15.3892 14.3135 14.2409 15.4347 12.8174 15.5945C10.2101 15.8835 7.57892 15.8835 4.97165 15.5945C3.5474 15.4347 2.39915 14.3135 2.2319 12.8847C1.9227 10.241 1.9227 7.57022 2.2319 4.92648C2.39915 3.49698 3.5474 2.37573 4.97165 2.21673ZM12.6442 4.40523C12.4452 4.40523 12.2545 4.48425 12.1138 4.6249C11.9732 4.76555 11.8942 4.95632 11.8942 5.15523C11.8942 5.35414 11.9732 5.54491 12.1138 5.68556C12.2545 5.82621 12.4452 5.90523 12.6442 5.90523C12.8431 5.90523 13.0338 5.82621 13.1745 5.68556C13.3151 5.54491 13.3942 5.35414 13.3942 5.15523C13.3942 4.95632 13.3151 4.76555 13.1745 4.6249C13.0338 4.48425 12.8431 4.40523 12.6442 4.40523ZM5.33165 8.90523C5.33165 7.9604 5.70699 7.05426 6.37509 6.38616C7.04318 5.71806 7.94932 5.34273 8.89415 5.34273C9.83899 5.34273 10.7451 5.71806 11.4132 6.38616C12.0813 7.05426 12.4567 7.9604 12.4567 8.90523C12.4567 9.85007 12.0813 10.7562 11.4132 11.4243C10.7451 12.0924 9.83899 12.4677 8.89415 12.4677C7.94932 12.4677 7.04318 12.0924 6.37509 11.4243C5.70699 10.7562 5.33165 9.85007 5.33165 8.90523Z" fill="#4C88CC"/>
</svg>
