<svg width="479" height="123" viewBox="0 0 479 123" fill="none" xmlns="http://www.w3.org/2000/svg">
<path fill-rule="evenodd" clip-rule="evenodd" d="M217.682 83.5215C211.495 83.5215 205.728 82.5286 200.382 80.5427C195.112 78.4804 190.529 75.5779 186.633 71.8353C182.738 68.0926 179.683 63.7008 177.468 58.6597C175.329 53.6185 174.26 48.081 174.26 42.0469C174.26 36.0128 175.329 30.4752 177.468 25.4341C179.683 20.393 182.738 16.0011 186.633 12.2585C190.605 8.51584 195.226 5.65157 200.496 3.66567C205.767 1.6034 211.533 0.572266 217.797 0.572266C224.747 0.572266 231.01 1.79436 236.586 4.23853C240.774 5.99286 244.458 8.37612 247.64 11.3883C247.273 11.7099 246.912 12.0381 246.557 12.3731C242.852 15.8642 239.911 19.9202 237.735 24.541C235.289 22.0256 232.614 20.1082 229.712 18.789C226.351 17.185 222.685 16.383 218.713 16.383C214.97 16.383 211.533 16.9941 208.402 18.2162C205.27 19.4383 202.559 21.195 200.267 23.4864C197.976 25.7778 196.181 28.4893 194.882 31.6209C193.66 34.7526 193.049 38.2279 193.049 42.0469C193.049 45.8659 193.66 49.3412 194.882 52.4728C196.181 55.6044 197.976 58.3159 200.267 60.6074C202.559 62.8988 205.27 64.6555 208.402 65.8776C211.533 67.0997 214.97 67.7107 218.713 67.7107C222.685 67.7107 226.351 66.9469 229.712 65.4193C232.604 64.0392 235.269 62.0652 237.709 59.4975C239.883 64.1413 242.794 68.2158 246.442 71.7208C246.798 72.0561 247.159 72.3846 247.526 72.7064C244.371 75.6829 240.724 78.0659 236.586 79.8553C231.01 82.2994 224.709 83.5215 217.682 83.5215ZM0.549805 82.1467V1.94711H19.1103V67.0233H59.3246V82.1467H0.549805ZM66.5386 82.1467V1.94711H85.099V82.1467H66.5386ZM94.0313 1.94711V82.1467H112.363V33.469L152.348 82.1467H167.586V1.94711H149.254V50.6028L109.384 1.94711H94.0313ZM337.096 1.94711V82.1467H395.871V67.0233H355.656V1.94711H337.096ZM404.979 82.1467V1.94711H420.331L460.202 50.6028V1.94711H478.533V82.1467H463.295L423.31 33.469V82.1467H404.979ZM268.05 80.4281C273.473 82.4904 279.354 83.5215 285.694 83.5215C291.957 83.5215 297.724 82.4904 302.994 80.4281C308.341 78.3658 312.962 75.5016 316.857 71.8353C320.829 68.0926 323.922 63.7008 326.137 58.6597C328.352 53.5422 329.46 48.0046 329.46 42.0469C329.46 36.0128 328.352 30.5134 326.137 25.5487C323.922 20.5076 320.829 16.1157 316.857 12.3731C312.962 8.63041 308.341 5.72795 302.994 3.66567C297.724 1.6034 291.919 0.572266 285.579 0.572266C279.316 0.572266 273.511 1.6034 268.165 3.66567C262.818 5.72795 258.159 8.63041 254.187 12.3731C250.215 16.1157 247.122 20.5076 244.907 25.5487C242.768 30.5898 241.699 36.0892 241.699 42.0469C241.699 48.0046 242.768 53.504 244.907 58.5451C247.122 63.5862 250.177 67.9781 254.072 71.7207C258.044 75.4634 262.703 78.3658 268.05 80.4281ZM295.432 65.8776C292.454 67.0997 289.169 67.7107 285.579 67.7107C281.989 67.7107 278.667 67.0997 275.612 65.8776C272.556 64.6555 269.883 62.8988 267.592 60.6074C265.377 58.3159 263.62 55.6044 262.321 52.4728C261.099 49.2649 260.488 45.7895 260.488 42.0469C260.488 38.2279 261.099 34.7526 262.321 31.6209C263.62 28.4893 265.415 25.7778 267.706 23.4864C269.998 21.195 272.633 19.4383 275.612 18.2162C278.667 16.9941 281.989 16.383 285.579 16.383C289.169 16.383 292.492 16.9941 295.547 18.2162C298.602 19.4383 301.237 21.195 303.452 23.4864C305.744 25.7778 307.501 28.4893 308.723 31.6209C310.021 34.7526 310.67 38.2279 310.67 42.0469C310.67 45.8659 310.021 49.3412 308.723 52.4728C307.501 55.6044 305.744 58.3159 303.452 60.6074C301.161 62.8988 298.488 64.6555 295.432 65.8776Z" fill="url(#paint0_linear_362_2)"/>
<path d="M0.549805 122.277V100.645H8.30634C10.1193 100.645 11.6747 100.933 12.9726 101.51C14.2705 102.087 15.2697 102.921 15.9702 104.013C16.6706 105.084 17.0209 106.393 17.0209 107.938C17.0209 109.442 16.6706 110.74 15.9702 111.831C15.2697 112.923 14.2705 113.758 12.9726 114.335C11.6747 114.911 10.1193 115.2 8.30634 115.2H1.41508L2.12583 114.458V122.277H0.549805ZM2.12583 114.551L1.41508 113.778H8.30634C10.6343 113.778 12.3958 113.274 13.5907 112.264C14.8062 111.234 15.4139 109.792 15.4139 107.938C15.4139 106.063 14.8062 104.621 13.5907 103.611C12.3958 102.581 10.6343 102.066 8.30634 102.066H1.41508L2.12583 101.294V114.551Z" fill="url(#paint1_linear_362_2)"/>
<path d="M47.0605 122.277V100.645H54.8171C56.63 100.645 58.1854 100.933 59.4834 101.51C60.7813 102.087 61.7804 102.921 62.4809 104.013C63.1813 105.084 63.5316 106.393 63.5316 107.938C63.5316 109.442 63.1813 110.74 62.4809 111.831C61.7804 112.903 60.7813 113.737 59.4834 114.335C58.1854 114.911 56.63 115.2 54.8171 115.2H47.9258L48.6366 114.458V122.277H47.0605ZM62.0792 122.277L56.4549 114.427H58.2472L63.8715 122.277H62.0792ZM48.6366 114.551L47.9258 113.809H54.8171C57.1451 113.809 58.9065 113.294 60.1014 112.264C61.3169 111.234 61.9247 109.792 61.9247 107.938C61.9247 106.063 61.3169 104.621 60.1014 103.611C58.9065 102.581 57.1451 102.066 54.8171 102.066H47.9258L48.6366 101.294V114.551Z" fill="url(#paint2_linear_362_2)"/>
<path d="M94.0239 122.277V100.645H95.6V122.277H94.0239Z" fill="url(#paint3_linear_362_2)"/>
<path d="M133.645 122.277L124.003 100.645H125.734L134.943 121.319H133.985L143.225 100.645H144.863L135.221 122.277H133.645Z" fill="url(#paint4_linear_362_2)"/>
<path d="M168.793 122.277L178.744 100.645H180.32L190.271 122.277H188.571L179.177 101.634H179.856L170.493 122.277H168.793ZM172.44 116.189L172.965 114.86H185.913L186.439 116.189H172.44Z" fill="url(#paint5_linear_362_2)"/>
<path d="M221.974 122.277V102.066H214.187V100.645H231.338V102.066H223.55V122.277H221.974Z" fill="url(#paint6_linear_362_2)"/>
<path d="M261.359 110.595H273.071V111.986H261.359V110.595ZM261.544 120.855H274.894V122.277H259.968V100.645H274.43V102.066H261.544V120.855Z" fill="url(#paint7_linear_362_2)"/>
<path d="M339.968 122.431C338.794 122.431 337.692 122.163 336.661 121.628C335.652 121.071 334.838 120.309 334.22 119.341L335.178 118.29C335.776 119.176 336.476 119.856 337.28 120.33C338.104 120.783 339 121.01 339.968 121.01C342.832 121.01 344.263 119.31 344.263 115.911V102.066H336.291V100.645H345.839V115.911C345.839 118.074 345.345 119.701 344.356 120.793C343.367 121.885 341.905 122.431 339.968 122.431Z" fill="url(#paint8_linear_362_2)"/>
<path d="M379.313 110.595H391.025V111.986H379.313V110.595ZM379.499 120.855H392.849V122.277H377.923V100.645H392.385V102.066H379.499V120.855Z" fill="url(#paint9_linear_362_2)"/>
<path d="M427.458 122.277V102.066H419.67V100.645H436.821V102.066H429.034V122.277H427.458Z" fill="url(#paint10_linear_362_2)"/>
<path d="M470.746 122.431C469.139 122.431 467.614 122.163 466.172 121.628C464.75 121.071 463.648 120.361 462.865 119.495L463.576 118.321C464.318 119.083 465.327 119.732 466.605 120.268C467.903 120.783 469.273 121.04 470.715 121.04C472.157 121.04 473.331 120.855 474.238 120.484C475.165 120.093 475.845 119.578 476.277 118.939C476.73 118.3 476.957 117.59 476.957 116.807C476.957 115.88 476.71 115.138 476.215 114.582C475.721 114.026 475.072 113.583 474.268 113.253C473.465 112.923 472.589 112.645 471.642 112.419C470.694 112.192 469.736 111.955 468.768 111.708C467.8 111.44 466.914 111.1 466.11 110.688C465.307 110.276 464.658 109.72 464.163 109.019C463.69 108.298 463.453 107.371 463.453 106.238C463.453 105.208 463.72 104.26 464.256 103.395C464.792 102.53 465.626 101.829 466.759 101.294C467.892 100.758 469.345 100.49 471.116 100.49C472.311 100.49 473.486 100.665 474.639 101.016C475.814 101.366 476.813 101.84 477.637 102.437L477.05 103.704C476.143 103.086 475.165 102.633 474.114 102.344C473.084 102.035 472.085 101.881 471.116 101.881C469.736 101.881 468.593 102.077 467.686 102.468C466.78 102.859 466.11 103.385 465.678 104.044C465.245 104.683 465.029 105.404 465.029 106.207C465.029 107.134 465.266 107.876 465.739 108.432C466.234 108.988 466.883 109.431 467.686 109.761C468.49 110.091 469.376 110.369 470.344 110.595C471.312 110.822 472.27 111.069 473.218 111.337C474.165 111.584 475.041 111.914 475.844 112.326C476.648 112.738 477.297 113.294 477.791 113.995C478.286 114.695 478.533 115.602 478.533 116.714C478.533 117.724 478.255 118.671 477.699 119.557C477.142 120.422 476.287 121.123 475.134 121.658C474.001 122.174 472.538 122.431 470.746 122.431Z" fill="url(#paint11_linear_362_2)"/>
<defs>
<linearGradient id="paint0_linear_362_2" x1="101.818" y1="7.22794" x2="125.297" y2="136.333" gradientUnits="userSpaceOnUse">
<stop stop-color="#5994D9"/>
<stop offset="1" stop-color="#303C82"/>
</linearGradient>
<linearGradient id="paint1_linear_362_2" x1="101.818" y1="102.251" x2="103.511" y2="137.448" gradientUnits="userSpaceOnUse">
<stop stop-color="#5994D9"/>
<stop offset="1" stop-color="#303C82"/>
</linearGradient>
<linearGradient id="paint2_linear_362_2" x1="101.818" y1="102.251" x2="103.511" y2="137.448" gradientUnits="userSpaceOnUse">
<stop stop-color="#5994D9"/>
<stop offset="1" stop-color="#303C82"/>
</linearGradient>
<linearGradient id="paint3_linear_362_2" x1="101.818" y1="102.251" x2="103.511" y2="137.448" gradientUnits="userSpaceOnUse">
<stop stop-color="#5994D9"/>
<stop offset="1" stop-color="#303C82"/>
</linearGradient>
<linearGradient id="paint4_linear_362_2" x1="101.818" y1="102.251" x2="103.511" y2="137.448" gradientUnits="userSpaceOnUse">
<stop stop-color="#5994D9"/>
<stop offset="1" stop-color="#303C82"/>
</linearGradient>
<linearGradient id="paint5_linear_362_2" x1="101.818" y1="102.251" x2="103.511" y2="137.448" gradientUnits="userSpaceOnUse">
<stop stop-color="#5994D9"/>
<stop offset="1" stop-color="#303C82"/>
</linearGradient>
<linearGradient id="paint6_linear_362_2" x1="101.818" y1="102.251" x2="103.511" y2="137.448" gradientUnits="userSpaceOnUse">
<stop stop-color="#5994D9"/>
<stop offset="1" stop-color="#303C82"/>
</linearGradient>
<linearGradient id="paint7_linear_362_2" x1="101.818" y1="102.251" x2="103.511" y2="137.448" gradientUnits="userSpaceOnUse">
<stop stop-color="#5994D9"/>
<stop offset="1" stop-color="#303C82"/>
</linearGradient>
<linearGradient id="paint8_linear_362_2" x1="101.818" y1="102.251" x2="103.511" y2="137.448" gradientUnits="userSpaceOnUse">
<stop stop-color="#5994D9"/>
<stop offset="1" stop-color="#303C82"/>
</linearGradient>
<linearGradient id="paint9_linear_362_2" x1="101.818" y1="102.251" x2="103.511" y2="137.448" gradientUnits="userSpaceOnUse">
<stop stop-color="#5994D9"/>
<stop offset="1" stop-color="#303C82"/>
</linearGradient>
<linearGradient id="paint10_linear_362_2" x1="101.818" y1="102.251" x2="103.511" y2="137.448" gradientUnits="userSpaceOnUse">
<stop stop-color="#5994D9"/>
<stop offset="1" stop-color="#303C82"/>
</linearGradient>
<linearGradient id="paint11_linear_362_2" x1="101.818" y1="102.251" x2="103.511" y2="137.448" gradientUnits="userSpaceOnUse">
<stop stop-color="#5994D9"/>
<stop offset="1" stop-color="#303C82"/>
</linearGradient>
</defs>
</svg>
