<svg width="2750" height="1045" viewBox="0 0 2750 1045" fill="none" xmlns="http://www.w3.org/2000/svg">
<rect width="2750" height="1045" rx="10" fill="url(#paint0_linear_499_2)"/>
<rect x="100.315" y="98.2773" width="2549.37" height="885.111" rx="19.5" stroke="#8B8B8B"/>
<line x1="610.611" y1="983.927" x2="610.611" y2="97.7781" stroke="#8B8B8B" stroke-dasharray="2 2"/>
<line x1="1111.01" y1="981.89" x2="1111.01" y2="97.7781" stroke="#8B8B8B" stroke-dasharray="2 2"/>
<line y1="-0.5" x2="101.852" y2="-0.5" transform="matrix(-0.872985 -0.487748 0.48946 -0.872026 1107.43 567.247)" stroke="#8B8B8B"/>
<line x1="2063.02" y1="981.89" x2="2063.02" y2="97.7781" stroke="#8B8B8B" stroke-dasharray="2 2"/>
<line y1="-0.5" x2="101.852" y2="-0.5" transform="matrix(-0.872985 -0.487748 0.48946 -0.872026 2057.41 567.247)" stroke="#8B8B8B"/>
<g filter="url(#filter0_b_499_2)">
<rect x="786.296" y="894.259" width="65.1852" height="48.8889" rx="5" transform="rotate(-90 786.296 894.259)" fill="#D9D9D9"/>
</g>
<g filter="url(#filter1_d_499_2)">
<path d="M716.018 870.632C726.882 870.632 736.049 872.397 736.049 879.208C736.049 886.021 726.822 887.724 716.018 887.724C705.158 887.724 695.988 885.958 695.988 879.148C695.988 872.335 705.215 870.632 716.018 870.632ZM716.018 837.646C723.378 837.646 729.274 843.541 729.274 850.895C729.274 858.248 723.378 864.145 716.018 864.145C708.662 864.145 702.763 858.248 702.763 850.895C702.763 843.541 708.662 837.646 716.018 837.646Z" fill="white"/>
<rect x="656.426" y="803.093" width="119.185" height="119.185" rx="9.5" stroke="white" shape-rendering="crispEdges"/>
</g>
<g filter="url(#filter2_b_499_2)">
<rect x="786.296" y="250.556" width="65.1852" height="48.8889" rx="5" transform="rotate(-90 786.296 250.556)" fill="#D9D9D9"/>
</g>
<g filter="url(#filter3_d_499_2)">
<path d="M716.018 226.928C726.882 226.928 736.049 228.693 736.049 235.504C736.049 242.317 726.822 244.02 716.018 244.02C705.158 244.02 695.988 242.254 695.988 235.444C695.988 228.631 705.215 226.928 716.018 226.928ZM716.018 193.942C723.378 193.942 729.274 199.837 729.274 207.19C729.274 214.544 723.378 220.441 716.018 220.441C708.662 220.441 702.763 214.544 702.763 207.19C702.763 199.837 708.662 193.942 716.018 193.942Z" fill="white"/>
<rect x="656.426" y="159.389" width="119.185" height="119.185" rx="9.5" stroke="white" shape-rendering="crispEdges"/>
</g>
<g filter="url(#filter4_b_499_2)">
<rect x="888.148" y="894.259" width="65.1852" height="48.8889" rx="5" transform="rotate(-90 888.148 894.259)" fill="#D9D9D9"/>
</g>
<g filter="url(#filter5_d_499_2)">
<path d="M1007.31 870.632C1018.18 870.632 1027.35 872.397 1027.35 879.208C1027.35 886.021 1018.12 887.724 1007.31 887.724C996.454 887.724 987.284 885.958 987.284 879.148C987.284 872.335 996.511 870.632 1007.31 870.632ZM1007.31 837.646C1014.67 837.646 1020.57 843.541 1020.57 850.895C1020.57 858.248 1014.67 864.145 1007.31 864.145C999.958 864.145 994.059 858.248 994.059 850.895C994.059 843.541 999.958 837.646 1007.31 837.646Z" fill="white"/>
<rect x="947.722" y="803.093" width="119.185" height="119.185" rx="9.5" stroke="white" shape-rendering="crispEdges"/>
</g>
<g filter="url(#filter6_b_499_2)">
<rect x="287.222" y="894.259" width="65.1852" height="48.8889" rx="5" transform="rotate(-90 287.222 894.259)" fill="#D9D9D9"/>
</g>
<g filter="url(#filter7_d_499_2)">
<path d="M216.944 870.632C227.807 870.632 236.975 872.397 236.975 879.208C236.975 886.021 227.747 887.724 216.944 887.724C206.083 887.724 196.913 885.958 196.913 879.148C196.913 872.335 206.141 870.632 216.944 870.632ZM216.944 837.646C224.303 837.646 230.199 843.541 230.199 850.895C230.199 858.248 224.303 864.145 216.944 864.145C209.587 864.145 203.689 858.248 203.689 850.895C203.689 843.541 209.587 837.646 216.944 837.646Z" fill="white"/>
<rect x="157.352" y="803.093" width="119.185" height="119.185" rx="9.5" stroke="white" shape-rendering="crispEdges"/>
</g>
<g filter="url(#filter8_b_499_2)">
<rect x="389.074" y="894.259" width="65.1852" height="48.8889" rx="5" transform="rotate(-90 389.074 894.259)" fill="#D9D9D9"/>
</g>
<g filter="url(#filter9_d_499_2)">
<path d="M508.241 870.632C519.104 870.632 528.271 872.397 528.271 879.208C528.271 886.021 519.044 887.724 508.241 887.724C497.38 887.724 488.21 885.958 488.21 879.148C488.21 872.335 497.437 870.632 508.241 870.632ZM508.241 837.646C515.6 837.646 521.496 843.541 521.496 850.895C521.496 858.248 515.6 864.145 508.241 864.145C500.884 864.145 494.985 858.248 494.985 850.895C494.985 843.541 500.884 837.646 508.241 837.646Z" fill="white"/>
<rect x="448.648" y="803.093" width="119.185" height="119.185" rx="9.5" stroke="white" shape-rendering="crispEdges"/>
</g>
<g filter="url(#filter10_b_499_2)">
<rect x="888.148" y="250.556" width="65.1852" height="48.8889" rx="5" transform="rotate(-90 888.148 250.556)" fill="#D9D9D9"/>
</g>
<g filter="url(#filter11_d_499_2)">
<path d="M1007.31 226.928C1018.18 226.928 1027.35 228.693 1027.35 235.504C1027.35 242.317 1018.12 244.02 1007.31 244.02C996.454 244.02 987.284 242.254 987.284 235.444C987.284 228.631 996.511 226.928 1007.31 226.928ZM1007.31 193.942C1014.67 193.942 1020.57 199.837 1020.57 207.19C1020.57 214.544 1014.67 220.441 1007.31 220.441C999.958 220.441 994.059 214.544 994.059 207.19C994.059 199.837 999.958 193.942 1007.31 193.942Z" fill="white"/>
<rect x="947.722" y="159.389" width="119.185" height="119.185" rx="9.5" stroke="white" shape-rendering="crispEdges"/>
</g>
<g filter="url(#filter12_d_499_2)">
<path d="M157.352 246.667L157.352 168.889C157.352 163.643 161.605 159.389 166.852 159.389L558.333 159.389C563.58 159.389 567.833 163.643 567.833 168.889V246.667C567.833 251.914 563.58 256.167 558.333 256.167L166.852 256.167C161.605 256.167 157.352 251.914 157.352 246.667Z" stroke="white" shape-rendering="crispEdges"/>
</g>
<rect x="156.852" y="266.852" width="189.237" height="48.8889" rx="5" fill="#D9D9D9"/>
<g filter="url(#filter13_d_499_2)">
<rect x="1208.46" y="159.389" width="119.68" height="119.681" rx="9.5" stroke="white"/>
<path d="M1268.3 227.21C1279.21 227.21 1288.42 228.982 1288.42 235.821C1288.42 242.662 1279.15 244.372 1268.3 244.372C1257.4 244.372 1248.19 242.599 1248.19 235.76C1248.19 228.919 1257.46 227.21 1268.3 227.21ZM1268.3 194.088C1275.69 194.088 1281.61 200.006 1281.61 207.391C1281.61 214.775 1275.69 220.696 1268.3 220.696C1260.92 220.696 1254.99 214.775 1254.99 207.391C1254.99 200.006 1260.92 194.088 1268.3 194.088Z" fill="white"/>
</g>
<g filter="url(#filter14_d_499_2)">
<rect x="1208.46" y="317.782" width="119.68" height="119.681" rx="9.5" stroke="white"/>
<path d="M1268.3 385.603C1279.21 385.603 1288.42 387.376 1288.42 394.214C1288.42 401.055 1279.15 402.765 1268.3 402.765C1257.4 402.765 1248.19 400.993 1248.19 394.154C1248.19 387.313 1257.46 385.603 1268.3 385.603ZM1268.3 352.481C1275.69 352.481 1281.61 358.4 1281.61 365.784C1281.61 373.168 1275.69 379.089 1268.3 379.089C1260.92 379.089 1254.99 373.168 1254.99 365.784C1254.99 358.4 1260.92 352.481 1268.3 352.481Z" fill="white"/>
</g>
<rect x="1366.86" y="159.389" width="119.68" height="119.681" rx="9.5" stroke="white"/>
<path d="M1426.69 227.21C1437.6 227.21 1446.81 228.982 1446.81 235.821C1446.81 242.662 1437.54 244.372 1426.69 244.372C1415.79 244.372 1406.58 242.599 1406.58 235.76C1406.58 228.919 1415.85 227.21 1426.69 227.21ZM1426.69 194.088C1434.08 194.088 1440 200.006 1440 207.391C1440 214.775 1434.08 220.696 1426.69 220.696C1419.31 220.696 1413.38 214.775 1413.38 207.391C1413.38 200.006 1419.31 194.088 1426.69 194.088Z" fill="white"/>
<g filter="url(#filter15_d_499_2)">
<path d="M1426.7 385.603C1437.61 385.603 1446.81 387.376 1446.81 394.214C1446.81 401.055 1437.55 402.765 1426.7 402.765C1415.79 402.765 1406.58 400.993 1406.58 394.154C1406.58 387.313 1415.85 385.603 1426.7 385.603ZM1426.7 352.481C1434.09 352.481 1440.01 358.4 1440.01 365.784C1440.01 373.168 1434.09 379.089 1426.7 379.089C1419.31 379.089 1413.39 373.168 1413.39 365.784C1413.39 358.4 1419.31 352.481 1426.7 352.481Z" fill="white"/>
<rect x="1366.86" y="317.782" width="119.68" height="119.681" rx="9.5" stroke="white"/>
</g>
<g filter="url(#filter16_d_499_2)">
<rect x="1526.24" y="159.389" width="119.68" height="119.681" rx="9.5" stroke="white"/>
<path d="M1586.08 227.21C1596.99 227.21 1606.19 228.982 1606.19 235.821C1606.19 242.662 1596.93 244.372 1586.08 244.372C1575.18 244.372 1565.97 242.599 1565.97 235.76C1565.97 228.919 1575.23 227.21 1586.08 227.21ZM1586.08 194.088C1593.47 194.088 1599.39 200.006 1599.39 207.391C1599.39 214.775 1593.47 220.696 1586.08 220.696C1578.69 220.696 1572.77 214.775 1572.77 207.391C1572.77 200.006 1578.69 194.088 1586.08 194.088Z" fill="white"/>
</g>
<g filter="url(#filter17_d_499_2)">
<rect x="1526.24" y="317.782" width="119.68" height="119.681" rx="9.5" stroke="white"/>
<path d="M1586.08 385.603C1596.99 385.603 1606.19 387.376 1606.19 394.214C1606.19 401.055 1596.93 402.765 1586.08 402.765C1575.18 402.765 1565.97 400.993 1565.97 394.154C1565.97 387.313 1575.23 385.603 1586.08 385.603ZM1586.08 352.481C1593.47 352.481 1599.39 358.4 1599.39 365.784C1599.39 373.168 1593.47 379.089 1586.08 379.089C1578.69 379.089 1572.77 373.168 1572.77 365.784C1572.77 358.4 1578.69 352.481 1586.08 352.481Z" fill="white"/>
</g>
<rect x="1684.63" y="159.389" width="119.68" height="119.681" rx="9.5" stroke="white"/>
<path d="M1744.47 227.21C1755.38 227.21 1764.59 228.982 1764.59 235.821C1764.59 242.662 1755.32 244.372 1744.47 244.372C1733.57 244.372 1724.36 242.599 1724.36 235.76C1724.36 228.919 1733.63 227.21 1744.47 227.21ZM1744.47 194.088C1751.86 194.088 1757.78 200.006 1757.78 207.391C1757.78 214.775 1751.86 220.696 1744.47 220.696C1737.09 220.696 1731.16 214.775 1731.16 207.391C1731.16 200.006 1737.09 194.088 1744.47 194.088Z" fill="white"/>
<g filter="url(#filter18_d_499_2)">
<path d="M1744.48 385.603C1755.38 385.603 1764.59 387.376 1764.59 394.214C1764.59 401.055 1755.32 402.765 1744.48 402.765C1733.57 402.765 1724.36 400.993 1724.36 394.154C1724.36 387.313 1733.63 385.603 1744.48 385.603ZM1744.48 352.481C1751.86 352.481 1757.79 358.4 1757.79 365.784C1757.79 373.168 1751.86 379.089 1744.48 379.089C1737.09 379.089 1731.17 373.168 1731.17 365.784C1731.17 358.4 1737.09 352.481 1744.48 352.481Z" fill="white"/>
<rect x="1684.64" y="317.782" width="119.68" height="119.681" rx="9.5" stroke="white"/>
</g>
<g filter="url(#filter19_d_499_2)">
<rect x="1844.02" y="159.389" width="119.68" height="119.681" rx="9.5" stroke="white"/>
<path d="M1903.86 227.21C1914.77 227.21 1923.97 228.982 1923.97 235.821C1923.97 242.662 1914.71 244.372 1903.86 244.372C1892.95 244.372 1883.75 242.599 1883.75 235.76C1883.75 228.919 1893.01 227.21 1903.86 227.21ZM1903.86 194.088C1911.25 194.088 1917.17 200.006 1917.17 207.391C1917.17 214.775 1911.25 220.696 1903.86 220.696C1896.47 220.696 1890.55 214.775 1890.55 207.391C1890.55 200.006 1896.47 194.088 1903.86 194.088Z" fill="white"/>
</g>
<g filter="url(#filter20_d_499_2)">
<rect x="1844.02" y="317.782" width="119.68" height="119.681" rx="9.5" stroke="white"/>
<path d="M1903.86 385.603C1914.77 385.603 1923.97 387.376 1923.97 394.214C1923.97 401.055 1914.71 402.765 1903.86 402.765C1892.95 402.765 1883.75 400.993 1883.75 394.154C1883.75 387.313 1893.01 385.603 1903.86 385.603ZM1903.86 352.481C1911.25 352.481 1917.17 358.4 1917.17 365.784C1917.17 373.168 1911.25 379.089 1903.86 379.089C1896.47 379.089 1890.55 373.168 1890.55 365.784C1890.55 358.4 1896.47 352.481 1903.86 352.481Z" fill="white"/>
</g>
<g filter="url(#filter21_d_499_2)">
<rect x="1526.24" y="644.203" width="119.68" height="119.681" rx="9.5" stroke="white"/>
<path d="M1586.08 712.023C1596.99 712.023 1606.19 713.796 1606.19 720.634C1606.19 727.475 1596.93 729.185 1586.08 729.185C1575.18 729.185 1565.97 727.413 1565.97 720.574C1565.97 713.733 1575.23 712.023 1586.08 712.023ZM1586.08 678.901C1593.47 678.901 1599.39 684.82 1599.39 692.204C1599.39 699.588 1593.47 705.509 1586.08 705.509C1578.69 705.509 1572.77 699.588 1572.77 692.204C1572.77 684.82 1578.69 678.901 1586.08 678.901Z" fill="white"/>
</g>
<g filter="url(#filter22_d_499_2)">
<rect x="1526.24" y="802.597" width="119.68" height="119.681" rx="9.5" stroke="white"/>
<path d="M1586.08 870.417C1596.99 870.417 1606.19 872.189 1606.19 879.028C1606.19 885.869 1596.93 887.579 1586.08 887.579C1575.18 887.579 1565.97 885.806 1565.97 878.967C1565.97 872.126 1575.23 870.417 1586.08 870.417ZM1586.08 837.295C1593.47 837.295 1599.39 843.213 1599.39 850.598C1599.39 857.982 1593.47 863.903 1586.08 863.903C1578.69 863.903 1572.77 857.982 1572.77 850.598C1572.77 843.213 1578.69 837.295 1586.08 837.295Z" fill="white"/>
</g>
<rect x="1684.63" y="644.203" width="119.68" height="119.681" rx="9.5" stroke="white"/>
<path d="M1744.47 712.023C1755.38 712.023 1764.59 713.796 1764.59 720.634C1764.59 727.475 1755.32 729.185 1744.47 729.185C1733.57 729.185 1724.36 727.413 1724.36 720.574C1724.36 713.733 1733.63 712.023 1744.47 712.023ZM1744.47 678.901C1751.86 678.901 1757.78 684.82 1757.78 692.204C1757.78 699.588 1751.86 705.509 1744.47 705.509C1737.09 705.509 1731.16 699.588 1731.16 692.204C1731.16 684.82 1737.09 678.901 1744.47 678.901Z" fill="white"/>
<g filter="url(#filter23_d_499_2)">
<path d="M1744.48 870.417C1755.38 870.417 1764.59 872.189 1764.59 879.028C1764.59 885.869 1755.32 887.579 1744.48 887.579C1733.57 887.579 1724.36 885.806 1724.36 878.967C1724.36 872.126 1733.63 870.417 1744.48 870.417ZM1744.48 837.295C1751.86 837.295 1757.79 843.213 1757.79 850.598C1757.79 857.982 1751.86 863.903 1744.48 863.903C1737.09 863.903 1731.17 857.982 1731.17 850.598C1731.17 843.213 1737.09 837.295 1744.48 837.295Z" fill="white"/>
<rect x="1684.64" y="802.597" width="119.68" height="119.681" rx="9.5" stroke="white"/>
</g>
<g filter="url(#filter24_d_499_2)">
<rect x="1844.02" y="644.203" width="119.68" height="119.681" rx="9.5" stroke="white"/>
<path d="M1903.86 712.023C1914.77 712.023 1923.97 713.796 1923.97 720.634C1923.97 727.475 1914.71 729.185 1903.86 729.185C1892.95 729.185 1883.75 727.413 1883.75 720.574C1883.75 713.733 1893.01 712.023 1903.86 712.023ZM1903.86 678.901C1911.25 678.901 1917.17 684.82 1917.17 692.204C1917.17 699.588 1911.25 705.509 1903.86 705.509C1896.47 705.509 1890.55 699.588 1890.55 692.204C1890.55 684.82 1896.47 678.901 1903.86 678.901Z" fill="white"/>
</g>
<g filter="url(#filter25_d_499_2)">
<rect x="1844.02" y="802.597" width="119.68" height="119.681" rx="9.5" stroke="white"/>
<path d="M1903.86 870.417C1914.77 870.417 1923.97 872.189 1923.97 879.028C1923.97 885.869 1914.71 887.579 1903.86 887.579C1892.95 887.579 1883.75 885.806 1883.75 878.967C1883.75 872.126 1893.01 870.417 1903.86 870.417ZM1903.86 837.295C1911.25 837.295 1917.17 843.213 1917.17 850.598C1917.17 857.982 1911.25 863.903 1903.86 863.903C1896.47 863.903 1890.55 857.982 1890.55 850.598C1890.55 843.213 1896.47 837.295 1903.86 837.295Z" fill="white"/>
</g>
<g filter="url(#filter26_d_499_2)">
<rect x="1208.46" y="644.203" width="119.681" height="119.681" rx="9.5" stroke="white"/>
<path d="M1268.3 712.021C1279.21 712.021 1288.42 713.794 1288.42 720.632C1288.42 727.474 1279.15 729.183 1268.3 729.183C1257.4 729.183 1248.19 727.411 1248.19 720.572C1248.19 713.731 1257.46 712.021 1268.3 712.021ZM1268.3 678.899C1275.69 678.899 1281.61 684.818 1281.61 692.202C1281.61 699.586 1275.69 705.507 1268.3 705.507C1260.92 705.507 1254.99 699.586 1254.99 692.202C1254.99 684.818 1260.92 678.899 1268.3 678.899Z" fill="white"/>
</g>
<g filter="url(#filter27_d_499_2)">
<rect x="1208.46" y="802.597" width="119.681" height="119.681" rx="9.5" stroke="white"/>
<path d="M1268.3 870.415C1279.21 870.415 1288.42 872.187 1288.42 879.026C1288.42 885.867 1279.15 887.577 1268.3 887.577C1257.4 887.577 1248.19 885.804 1248.19 878.966C1248.19 872.124 1257.46 870.415 1268.3 870.415ZM1268.3 837.293C1275.69 837.293 1281.61 843.211 1281.61 850.596C1281.61 857.98 1275.69 863.901 1268.3 863.901C1260.92 863.901 1254.99 857.98 1254.99 850.596C1254.99 843.211 1260.92 837.293 1268.3 837.293Z" fill="white"/>
</g>
<rect x="1366.86" y="644.203" width="119.681" height="119.681" rx="9.5" stroke="white"/>
<path d="M1426.7 712.021C1437.61 712.021 1446.81 713.794 1446.81 720.632C1446.81 727.474 1437.55 729.183 1426.7 729.183C1415.79 729.183 1406.58 727.411 1406.58 720.572C1406.58 713.731 1415.85 712.021 1426.7 712.021ZM1426.7 678.899C1434.09 678.899 1440.01 684.818 1440.01 692.202C1440.01 699.586 1434.09 705.507 1426.7 705.507C1419.31 705.507 1413.39 699.586 1413.39 692.202C1413.39 684.818 1419.31 678.899 1426.7 678.899Z" fill="white"/>
<g filter="url(#filter28_d_499_2)">
<path d="M1426.7 870.415C1437.61 870.415 1446.81 872.187 1446.81 879.026C1446.81 885.867 1437.55 887.577 1426.7 887.577C1415.79 887.577 1406.58 885.804 1406.58 878.966C1406.58 872.124 1415.85 870.415 1426.7 870.415ZM1426.7 837.293C1434.09 837.293 1440.01 843.211 1440.01 850.596C1440.01 857.98 1434.09 863.901 1426.7 863.901C1419.31 863.901 1413.39 857.98 1413.39 850.596C1413.39 843.211 1419.31 837.293 1426.7 837.293Z" fill="white"/>
<rect x="1366.86" y="802.597" width="119.681" height="119.681" rx="9.5" stroke="white"/>
</g>
<path d="M180.432 499.02C180.432 496.92 180.027 495.075 179.217 493.485C178.407 491.895 177.282 490.65 175.842 489.75C174.432 488.85 172.827 488.4 171.027 488.4C170.247 488.4 169.452 488.505 168.642 488.715C167.862 488.895 167.097 489.18 166.347 489.57L168.462 481.245H180.342V477.87H165.492L161.352 494.655C162.432 493.905 163.377 493.335 164.187 492.945C165.027 492.525 165.852 492.24 166.662 492.09C167.502 491.91 168.417 491.82 169.407 491.82C170.757 491.82 171.957 492.12 173.007 492.72C174.087 493.32 174.927 494.16 175.527 495.24C176.157 496.32 176.472 497.58 176.472 499.02C176.472 500.46 176.187 501.72 175.617 502.8C175.077 503.88 174.282 504.72 173.232 505.32C172.182 505.92 170.907 506.22 169.407 506.22C168.267 506.22 167.172 505.98 166.122 505.5C165.072 504.99 164.142 504.345 163.332 503.565C162.552 502.755 161.922 501.9 161.442 501L158.202 503.205C158.892 504.405 159.732 505.515 160.722 506.535C161.742 507.525 162.957 508.32 164.367 508.92C165.807 509.52 167.487 509.82 169.407 509.82C170.937 509.82 172.362 509.595 173.682 509.145C175.002 508.695 176.172 508.02 177.192 507.12C178.212 506.22 179.007 505.095 179.577 503.745C180.147 502.395 180.432 500.82 180.432 499.02ZM200.513 499.83L197.453 501.9C198.143 503.28 199.028 504.585 200.108 505.815C201.218 507.015 202.493 507.99 203.933 508.74C205.403 509.46 206.993 509.82 208.703 509.82C209.963 509.82 211.163 509.61 212.303 509.19C213.473 508.77 214.508 508.17 215.408 507.39C216.338 506.61 217.058 505.665 217.568 504.555C218.108 503.445 218.378 502.2 218.378 500.82C218.378 499.38 218.123 498.15 217.613 497.13C217.103 496.08 216.443 495.195 215.633 494.475C214.853 493.725 213.998 493.11 213.068 492.63C212.138 492.15 211.253 491.76 210.413 491.46C208.583 490.83 207.128 490.2 206.048 489.57C204.998 488.91 204.248 488.22 203.798 487.5C203.348 486.75 203.123 485.94 203.123 485.07C203.123 484.05 203.513 483.135 204.293 482.325C205.073 481.485 206.318 481.065 208.028 481.065C209.258 481.065 210.293 481.305 211.133 481.785C212.003 482.265 212.738 482.88 213.338 483.63C213.938 484.38 214.433 485.145 214.823 485.925L218.108 484.035C217.598 482.925 216.893 481.875 215.993 480.885C215.093 479.865 213.998 479.04 212.708 478.41C211.448 477.75 209.963 477.42 208.253 477.42C206.483 477.42 204.908 477.78 203.528 478.5C202.148 479.19 201.068 480.15 200.288 481.38C199.508 482.61 199.118 484.005 199.118 485.565C199.118 487.005 199.388 488.22 199.928 489.21C200.498 490.2 201.218 491.04 202.088 491.73C202.958 492.39 203.873 492.945 204.833 493.395C205.793 493.815 206.663 494.16 207.443 494.43C208.643 494.85 209.768 495.33 210.818 495.87C211.898 496.38 212.768 497.055 213.428 497.895C214.088 498.735 214.418 499.86 214.418 501.27C214.418 502.71 213.908 503.895 212.888 504.825C211.868 505.755 210.518 506.22 208.838 506.22C207.578 506.22 206.453 505.95 205.463 505.41C204.473 504.87 203.573 504.12 202.763 503.16C201.983 502.2 201.233 501.09 200.513 499.83ZM226.112 509.37H241.997V505.77H226.112V509.37ZM226.112 481.47H241.997V477.87H226.112V481.47ZM226.112 494.07H241.097V490.47H226.112V494.07ZM223.997 477.87V509.37H227.822V477.87H223.997ZM251.753 499.92H268.403L267.053 496.32H253.103L251.753 499.92ZM259.988 484.98L265.388 497.67L265.748 498.57L270.338 509.37H274.613L259.988 476.295L245.363 509.37H249.638L254.318 498.3L254.678 497.49L259.988 484.98ZM272.131 481.47H280.231V509.37H284.056V481.47H292.156V477.87H272.131V481.47ZM162.567 533.47H176.652V529.87H162.567V533.47ZM162.567 546.07H176.202V542.47H162.567V546.07ZM160.452 529.87V561.37H164.277V529.87H160.452ZM185.202 545.62C185.202 543.25 185.712 541.135 186.732 539.275C187.782 537.415 189.207 535.945 191.007 534.865C192.807 533.785 194.847 533.245 197.127 533.245C199.437 533.245 201.477 533.785 203.247 534.865C205.047 535.945 206.457 537.415 207.477 539.275C208.527 541.135 209.052 543.25 209.052 545.62C209.052 547.99 208.527 550.105 207.477 551.965C206.457 553.825 205.047 555.295 203.247 556.375C201.477 557.455 199.437 557.995 197.127 557.995C194.847 557.995 192.807 557.455 191.007 556.375C189.207 555.295 187.782 553.825 186.732 551.965C185.712 550.105 185.202 547.99 185.202 545.62ZM181.152 545.62C181.152 547.9 181.542 550.03 182.322 552.01C183.132 553.99 184.257 555.715 185.697 557.185C187.137 558.625 188.832 559.765 190.782 560.605C192.732 561.415 194.847 561.82 197.127 561.82C199.437 561.82 201.552 561.415 203.472 560.605C205.422 559.765 207.117 558.625 208.557 557.185C209.997 555.715 211.107 553.99 211.887 552.01C212.697 550.03 213.102 547.9 213.102 545.62C213.102 543.31 212.697 541.18 211.887 539.23C211.107 537.25 209.997 535.54 208.557 534.1C207.117 532.63 205.422 531.49 203.472 530.68C201.552 529.84 199.437 529.42 197.127 529.42C194.847 529.42 192.732 529.84 190.782 530.68C188.832 531.49 187.137 532.63 185.697 534.1C184.257 535.54 183.132 537.25 182.322 539.23C181.542 541.18 181.152 543.31 181.152 545.62ZM224.129 545.845L234.929 561.37H239.654L228.404 545.845H224.129ZM218.504 529.87V561.37H222.329V529.87H218.504ZM220.619 533.245H227.054C228.404 533.245 229.589 533.485 230.609 533.965C231.659 534.445 232.469 535.135 233.039 536.035C233.639 536.935 233.939 538.03 233.939 539.32C233.939 540.61 233.639 541.705 233.039 542.605C232.469 543.505 231.659 544.195 230.609 544.675C229.589 545.155 228.404 545.395 227.054 545.395H220.619V548.77H227.054C229.094 548.77 230.909 548.395 232.499 547.645C234.119 546.865 235.394 545.77 236.324 544.36C237.284 542.92 237.764 541.24 237.764 539.32C237.764 537.37 237.284 535.69 236.324 534.28C235.394 532.87 234.119 531.79 232.499 531.04C230.909 530.26 229.094 529.87 227.054 529.87H220.619V533.245ZM271.719 553.045L262.359 528.295L253.179 553.045L244.809 529.87H240.534L252.909 562.945L262.359 538.465L271.809 562.945L284.184 529.87H279.909L271.719 553.045ZM286.777 551.92H303.427L302.077 548.32H288.127L286.777 551.92ZM295.012 536.98L300.412 549.67L300.772 550.57L305.362 561.37H309.637L295.012 528.295L280.387 561.37H284.662L289.342 550.3L289.702 549.49L295.012 536.98ZM319.094 545.845L329.894 561.37H334.619L323.369 545.845H319.094ZM313.469 529.87V561.37H317.294V529.87H313.469ZM315.584 533.245H322.019C323.369 533.245 324.554 533.485 325.574 533.965C326.624 534.445 327.434 535.135 328.004 536.035C328.604 536.935 328.904 538.03 328.904 539.32C328.904 540.61 328.604 541.705 328.004 542.605C327.434 543.505 326.624 544.195 325.574 544.675C324.554 545.155 323.369 545.395 322.019 545.395H315.584V548.77H322.019C324.059 548.77 325.874 548.395 327.464 547.645C329.084 546.865 330.359 545.77 331.289 544.36C332.249 542.92 332.729 541.24 332.729 539.32C332.729 537.37 332.249 535.69 331.289 534.28C330.359 532.87 329.084 531.79 327.464 531.04C325.874 530.26 324.059 529.87 322.019 529.87H315.584V533.245ZM338.65 529.87V561.37H342.475V529.87H338.65ZM348.1 561.37C351.16 561.37 353.875 560.71 356.245 559.39C358.615 558.07 360.475 556.24 361.825 553.9C363.175 551.53 363.85 548.77 363.85 545.62C363.85 542.47 363.175 539.725 361.825 537.385C360.475 535.015 358.615 533.17 356.245 531.85C353.875 530.53 351.16 529.87 348.1 529.87H340.765V533.695H348.1C349.87 533.695 351.49 533.98 352.96 534.55C354.43 535.09 355.69 535.885 356.74 536.935C357.79 537.955 358.6 539.2 359.17 540.67C359.74 542.14 360.025 543.79 360.025 545.62C360.025 547.45 359.74 549.1 359.17 550.57C358.6 552.04 357.79 553.3 356.74 554.35C355.69 555.37 354.43 556.165 352.96 556.735C351.49 557.275 349.87 557.545 348.1 557.545H340.765V561.37H348.1ZM171.702 606.26L161.352 581.87H157.077L171.702 614.945L186.327 581.87H182.052L171.702 606.26ZM190.159 581.87V613.37H193.984V581.87H190.159ZM201.189 581.87V613.37H205.014V581.87H201.189ZM203.304 585.47H209.739C211.779 585.47 213.429 585.965 214.689 586.955C215.979 587.915 216.624 589.37 216.624 591.32C216.624 593.24 215.979 594.695 214.689 595.685C213.429 596.675 211.779 597.17 209.739 597.17H203.304V600.77H209.739C211.779 600.77 213.594 600.395 215.184 599.645C216.804 598.865 218.079 597.77 219.009 596.36C219.969 594.92 220.449 593.24 220.449 591.32C220.449 589.37 219.969 587.69 219.009 586.28C218.079 584.87 216.804 583.79 215.184 583.04C213.594 582.26 211.779 581.87 209.739 581.87H203.304V585.47ZM241.584 597.62C241.584 595.16 242.124 593.015 243.204 591.185C244.314 589.325 245.754 587.87 247.524 586.82C249.294 585.77 251.214 585.245 253.284 585.245C254.784 585.245 256.149 585.44 257.379 585.83C258.639 586.22 259.779 586.775 260.799 587.495C261.819 588.185 262.689 588.995 263.409 589.925V584.885C262.089 583.715 260.649 582.845 259.089 582.275C257.529 581.705 255.594 581.42 253.284 581.42C251.094 581.42 249.039 581.825 247.119 582.635C245.229 583.415 243.564 584.54 242.124 586.01C240.684 587.45 239.559 589.16 238.749 591.14C237.939 593.12 237.534 595.28 237.534 597.62C237.534 599.96 237.939 602.12 238.749 604.1C239.559 606.08 240.684 607.805 242.124 609.275C243.564 610.715 245.229 611.84 247.119 612.65C249.039 613.43 251.094 613.82 253.284 613.82C255.594 613.82 257.529 613.535 259.089 612.965C260.649 612.395 262.089 611.525 263.409 610.355V605.315C262.689 606.245 261.819 607.07 260.799 607.79C259.779 608.48 258.639 609.02 257.379 609.41C256.149 609.8 254.784 609.995 253.284 609.995C251.214 609.995 249.294 609.47 247.524 608.42C245.754 607.37 244.314 605.915 243.204 604.055C242.124 602.195 241.584 600.05 241.584 597.62ZM272.495 603.92H289.145L287.795 600.32H273.845L272.495 603.92ZM280.73 588.98L286.13 601.67L286.49 602.57L291.08 613.37H295.355L280.73 580.295L266.105 613.37H270.38L275.06 602.3L275.42 601.49L280.73 588.98ZM302.202 596.72H307.287C309.177 596.72 310.812 596.45 312.192 595.91C313.602 595.37 314.697 594.575 315.477 593.525C316.257 592.475 316.647 591.215 316.647 589.745C316.647 587.945 316.257 586.475 315.477 585.335C314.697 584.165 313.602 583.295 312.192 582.725C310.812 582.155 309.177 581.87 307.287 581.87H299.187V613.37H307.737C309.777 613.37 311.592 613.04 313.182 612.38C314.802 611.69 316.077 610.67 317.007 609.32C317.967 607.94 318.447 606.215 318.447 604.145C318.447 602.705 318.177 601.46 317.637 600.41C317.097 599.36 316.332 598.505 315.342 597.845C314.382 597.155 313.257 596.645 311.967 596.315C310.677 595.985 309.267 595.82 307.737 595.82H302.202V597.935H307.737C308.757 597.935 309.687 598.07 310.527 598.34C311.367 598.58 312.087 598.955 312.687 599.465C313.317 599.975 313.797 600.605 314.127 601.355C314.457 602.105 314.622 602.96 314.622 603.92C314.622 605.21 314.322 606.305 313.722 607.205C313.152 608.105 312.342 608.795 311.292 609.275C310.272 609.755 309.087 609.995 307.737 609.995H303.012V585.245H307.287C308.877 585.245 310.197 585.665 311.247 586.505C312.297 587.315 312.822 588.47 312.822 589.97C312.822 590.96 312.582 591.8 312.102 592.49C311.622 593.18 310.962 593.705 310.122 594.065C309.282 594.425 308.337 594.605 307.287 594.605H302.202V596.72ZM324.28 581.87V613.37H328.105V581.87H324.28ZM359.16 581.87V605.315L335.31 580.295V613.37H339.135V589.925L362.985 614.945V581.87H359.16Z" fill="white"/>
<path d="M2200.5 492.72H2205.59C2207.48 492.72 2209.11 492.45 2210.49 491.91C2211.9 491.37 2213 490.575 2213.78 489.525C2214.56 488.475 2214.95 487.215 2214.95 485.745C2214.95 483.945 2214.56 482.475 2213.78 481.335C2213 480.165 2211.9 479.295 2210.49 478.725C2209.11 478.155 2207.48 477.87 2205.59 477.87H2197.49V509.37H2206.04C2208.08 509.37 2209.89 509.04 2211.48 508.38C2213.1 507.69 2214.38 506.67 2215.31 505.32C2216.27 503.94 2216.75 502.215 2216.75 500.145C2216.75 498.705 2216.48 497.46 2215.94 496.41C2215.4 495.36 2214.63 494.505 2213.64 493.845C2212.68 493.155 2211.56 492.645 2210.27 492.315C2208.98 491.985 2207.57 491.82 2206.04 491.82H2200.5V493.935H2206.04C2207.06 493.935 2207.99 494.07 2208.83 494.34C2209.67 494.58 2210.39 494.955 2210.99 495.465C2211.62 495.975 2212.1 496.605 2212.43 497.355C2212.76 498.105 2212.92 498.96 2212.92 499.92C2212.92 501.21 2212.62 502.305 2212.02 503.205C2211.45 504.105 2210.64 504.795 2209.59 505.275C2208.57 505.755 2207.39 505.995 2206.04 505.995H2201.31V481.245H2205.59C2207.18 481.245 2208.5 481.665 2209.55 482.505C2210.6 483.315 2211.12 484.47 2211.12 485.97C2211.12 486.96 2210.88 487.8 2210.4 488.49C2209.92 489.18 2209.26 489.705 2208.42 490.065C2207.58 490.425 2206.64 490.605 2205.59 490.605H2200.5V492.72ZM2224.94 499.92H2241.59L2240.24 496.32H2226.29L2224.94 499.92ZM2233.17 484.98L2238.57 497.67L2238.93 498.57L2243.52 509.37H2247.8L2233.17 476.295L2218.55 509.37H2222.82L2227.5 498.3L2227.86 497.49L2233.17 484.98ZM2264.89 496.995H2275.38C2275.11 498.225 2274.67 499.38 2274.07 500.46C2273.5 501.54 2272.77 502.5 2271.87 503.34C2270.97 504.18 2269.89 504.84 2268.63 505.32C2267.4 505.77 2266 505.995 2264.44 505.995C2262.22 505.995 2260.21 505.47 2258.41 504.42C2256.61 503.37 2255.17 501.915 2254.09 500.055C2253.04 498.195 2252.52 496.05 2252.52 493.62C2252.52 491.16 2253.04 489.015 2254.09 487.185C2255.17 485.325 2256.61 483.87 2258.41 482.82C2260.21 481.77 2262.22 481.245 2264.44 481.245C2266.84 481.245 2268.93 481.725 2270.7 482.685C2272.47 483.615 2273.85 484.92 2274.84 486.6L2277.54 484.125C2276.64 482.655 2275.53 481.425 2274.21 480.435C2272.92 479.445 2271.45 478.695 2269.8 478.185C2268.18 477.675 2266.39 477.42 2264.44 477.42C2262.16 477.42 2260.05 477.825 2258.1 478.635C2256.15 479.415 2254.45 480.54 2253.01 482.01C2251.57 483.45 2250.45 485.16 2249.64 487.14C2248.86 489.12 2248.47 491.28 2248.47 493.62C2248.47 495.96 2248.86 498.12 2249.64 500.1C2250.45 502.08 2251.57 503.805 2253.01 505.275C2254.45 506.715 2256.15 507.84 2258.1 508.65C2260.05 509.43 2262.16 509.82 2264.44 509.82C2266.84 509.82 2268.97 509.385 2270.83 508.515C2272.72 507.615 2274.31 506.4 2275.6 504.87C2276.89 503.34 2277.87 501.6 2278.53 499.65C2279.19 497.67 2279.52 495.585 2279.52 493.395H2264.89V496.995ZM2299.78 496.995H2310.27C2310 498.225 2309.56 499.38 2308.96 500.46C2308.39 501.54 2307.66 502.5 2306.76 503.34C2305.86 504.18 2304.78 504.84 2303.52 505.32C2302.29 505.77 2300.89 505.995 2299.33 505.995C2297.11 505.995 2295.1 505.47 2293.3 504.42C2291.5 503.37 2290.06 501.915 2288.98 500.055C2287.93 498.195 2287.41 496.05 2287.41 493.62C2287.41 491.16 2287.93 489.015 2288.98 487.185C2290.06 485.325 2291.5 483.87 2293.3 482.82C2295.1 481.77 2297.11 481.245 2299.33 481.245C2301.73 481.245 2303.82 481.725 2305.59 482.685C2307.36 483.615 2308.74 484.92 2309.73 486.6L2312.43 484.125C2311.53 482.655 2310.42 481.425 2309.1 480.435C2307.81 479.445 2306.34 478.695 2304.69 478.185C2303.07 477.675 2301.28 477.42 2299.33 477.42C2297.05 477.42 2294.94 477.825 2292.99 478.635C2291.04 479.415 2289.34 480.54 2287.9 482.01C2286.46 483.45 2285.34 485.16 2284.53 487.14C2283.75 489.12 2283.36 491.28 2283.36 493.62C2283.36 495.96 2283.75 498.12 2284.53 500.1C2285.34 502.08 2286.46 503.805 2287.9 505.275C2289.34 506.715 2291.04 507.84 2292.99 508.65C2294.94 509.43 2297.05 509.82 2299.33 509.82C2301.73 509.82 2303.86 509.385 2305.72 508.515C2307.61 507.615 2309.2 506.4 2310.49 504.87C2311.78 503.34 2312.76 501.6 2313.42 499.65C2314.08 497.67 2314.41 495.585 2314.41 493.395H2299.78V496.995ZM2321.7 499.92H2338.35L2337 496.32H2323.05L2321.7 499.92ZM2329.94 484.98L2335.34 497.67L2335.7 498.57L2340.29 509.37H2344.56L2329.94 476.295L2315.31 509.37H2319.59L2324.27 498.3L2324.63 497.49L2329.94 484.98ZM2361.66 496.995H2372.14C2371.87 498.225 2371.44 499.38 2370.84 500.46C2370.27 501.54 2369.53 502.5 2368.63 503.34C2367.73 504.18 2366.65 504.84 2365.39 505.32C2364.16 505.77 2362.77 505.995 2361.21 505.995C2358.99 505.995 2356.98 505.47 2355.18 504.42C2353.38 503.37 2351.94 501.915 2350.86 500.055C2349.81 498.195 2349.28 496.05 2349.28 493.62C2349.28 491.16 2349.81 489.015 2350.86 487.185C2351.94 485.325 2353.38 483.87 2355.18 482.82C2356.98 481.77 2358.99 481.245 2361.21 481.245C2363.61 481.245 2365.69 481.725 2367.46 482.685C2369.23 483.615 2370.61 484.92 2371.6 486.6L2374.3 484.125C2373.4 482.655 2372.29 481.425 2370.97 480.435C2369.68 479.445 2368.21 478.695 2366.56 478.185C2364.94 477.675 2363.16 477.42 2361.21 477.42C2358.93 477.42 2356.81 477.825 2354.86 478.635C2352.91 479.415 2351.22 480.54 2349.78 482.01C2348.34 483.45 2347.21 485.16 2346.4 487.14C2345.62 489.12 2345.23 491.28 2345.23 493.62C2345.23 495.96 2345.62 498.12 2346.4 500.1C2347.21 502.08 2348.34 503.805 2349.78 505.275C2351.22 506.715 2352.91 507.84 2354.86 508.65C2356.81 509.43 2358.93 509.82 2361.21 509.82C2363.61 509.82 2365.74 509.385 2367.6 508.515C2369.49 507.615 2371.08 506.4 2372.37 504.87C2373.66 503.34 2374.63 501.6 2375.29 499.65C2375.95 497.67 2376.28 495.585 2376.28 493.395H2361.66V496.995ZM2384.04 509.37H2399.93V505.77H2384.04V509.37ZM2384.04 481.47H2399.93V477.87H2384.04V481.47ZM2384.04 494.07H2399.03V490.47H2384.04V494.07ZM2381.93 477.87V509.37H2385.75V477.87H2381.93ZM2199.74 545.62C2199.74 543.16 2200.28 541.015 2201.36 539.185C2202.47 537.325 2203.91 535.87 2205.68 534.82C2207.45 533.77 2209.37 533.245 2211.44 533.245C2212.94 533.245 2214.3 533.44 2215.53 533.83C2216.79 534.22 2217.93 534.775 2218.95 535.495C2219.97 536.185 2220.84 536.995 2221.56 537.925V532.885C2220.24 531.715 2218.8 530.845 2217.24 530.275C2215.68 529.705 2213.75 529.42 2211.44 529.42C2209.25 529.42 2207.19 529.825 2205.27 530.635C2203.38 531.415 2201.72 532.54 2200.28 534.01C2198.84 535.45 2197.71 537.16 2196.9 539.14C2196.09 541.12 2195.69 543.28 2195.69 545.62C2195.69 547.96 2196.09 550.12 2196.9 552.1C2197.71 554.08 2198.84 555.805 2200.28 557.275C2201.72 558.715 2203.38 559.84 2205.27 560.65C2207.19 561.43 2209.25 561.82 2211.44 561.82C2213.75 561.82 2215.68 561.535 2217.24 560.965C2218.8 560.395 2220.24 559.525 2221.56 558.355V553.315C2220.84 554.245 2219.97 555.07 2218.95 555.79C2217.93 556.48 2216.79 557.02 2215.53 557.41C2214.3 557.8 2212.94 557.995 2211.44 557.995C2209.37 557.995 2207.45 557.47 2205.68 556.42C2203.91 555.37 2202.47 553.915 2201.36 552.055C2200.28 550.195 2199.74 548.05 2199.74 545.62ZM2230.65 551.92H2247.3L2245.95 548.32H2232L2230.65 551.92ZM2238.89 536.98L2244.29 549.67L2244.65 550.57L2249.24 561.37H2253.51L2238.89 528.295L2224.26 561.37H2228.54L2233.22 550.3L2233.58 549.49L2238.89 536.98ZM2257.34 529.87V561.37H2261.17V529.87H2257.34ZM2259.46 533.47H2265.89C2267.93 533.47 2269.58 533.965 2270.84 534.955C2272.13 535.915 2272.78 537.37 2272.78 539.32C2272.78 541.24 2272.13 542.695 2270.84 543.685C2269.58 544.675 2267.93 545.17 2265.89 545.17H2259.46V548.77H2265.89C2267.93 548.77 2269.75 548.395 2271.34 547.645C2272.96 546.865 2274.23 545.77 2275.16 544.36C2276.12 542.92 2276.6 541.24 2276.6 539.32C2276.6 537.37 2276.12 535.69 2275.16 534.28C2274.23 532.87 2272.96 531.79 2271.34 531.04C2269.75 530.26 2267.93 529.87 2265.89 529.87H2259.46V533.47ZM2281.85 551.92H2298.5L2297.15 548.32H2283.2L2281.85 551.92ZM2290.08 536.98L2295.48 549.67L2295.84 550.57L2300.43 561.37H2304.71L2290.08 528.295L2275.46 561.37H2279.73L2284.41 550.3L2284.77 549.49L2290.08 536.98ZM2309.43 545.62C2309.43 543.16 2309.97 541.015 2311.05 539.185C2312.16 537.325 2313.6 535.87 2315.37 534.82C2317.14 533.77 2319.06 533.245 2321.13 533.245C2322.63 533.245 2323.99 533.44 2325.22 533.83C2326.48 534.22 2327.62 534.775 2328.64 535.495C2329.66 536.185 2330.53 536.995 2331.25 537.925V532.885C2329.93 531.715 2328.49 530.845 2326.93 530.275C2325.37 529.705 2323.44 529.42 2321.13 529.42C2318.94 529.42 2316.88 529.825 2314.96 530.635C2313.07 531.415 2311.41 532.54 2309.97 534.01C2308.53 535.45 2307.4 537.16 2306.59 539.14C2305.78 541.12 2305.38 543.28 2305.38 545.62C2305.38 547.96 2305.78 550.12 2306.59 552.1C2307.4 554.08 2308.53 555.805 2309.97 557.275C2311.41 558.715 2313.07 559.84 2314.96 560.65C2316.88 561.43 2318.94 561.82 2321.13 561.82C2323.44 561.82 2325.37 561.535 2326.93 560.965C2328.49 560.395 2329.93 559.525 2331.25 558.355V553.315C2330.53 554.245 2329.66 555.07 2328.64 555.79C2327.62 556.48 2326.48 557.02 2325.22 557.41C2323.99 557.8 2322.63 557.995 2321.13 557.995C2319.06 557.995 2317.14 557.47 2315.37 556.42C2313.6 555.37 2312.16 553.915 2311.05 552.055C2309.97 550.195 2309.43 548.05 2309.43 545.62ZM2337.98 529.87V561.37H2341.81V529.87H2337.98ZM2345.86 533.47H2353.96V561.37H2357.79V533.47H2365.89V529.87H2345.86V533.47ZM2388.44 529.87L2380.29 544.45L2372.19 529.87H2367.92L2378.4 547.825V561.37H2382.23V547.78L2392.71 529.87H2388.44ZM2397.19 559.57C2397.19 560.23 2397.43 560.815 2397.91 561.325C2398.42 561.805 2399.01 562.045 2399.67 562.045C2400.36 562.045 2400.94 561.805 2401.42 561.325C2401.9 560.815 2402.14 560.23 2402.14 559.57C2402.14 558.88 2401.9 558.295 2401.42 557.815C2400.94 557.335 2400.36 557.095 2399.67 557.095C2399.01 557.095 2398.42 557.335 2397.91 557.815C2397.43 558.295 2397.19 558.88 2397.19 559.57ZM2397.19 542.47C2397.19 543.13 2397.43 543.715 2397.91 544.225C2398.42 544.705 2399.01 544.945 2399.67 544.945C2400.36 544.945 2400.94 544.705 2401.42 544.225C2401.9 543.715 2402.14 543.13 2402.14 542.47C2402.14 541.78 2401.9 541.195 2401.42 540.715C2400.94 540.235 2400.36 539.995 2399.67 539.995C2399.01 539.995 2398.42 540.235 2397.91 540.715C2397.43 541.195 2397.19 541.78 2397.19 542.47ZM2420.8 555.07H2444.78V551.695H2438.35H2437.58H2427.1L2436.01 538.375V552.955V553.45V561.37H2439.83V529.87H2438.26L2420.8 555.07ZM2449.73 537.475C2449.73 538.705 2449.94 539.815 2450.36 540.805C2450.78 541.765 2451.37 542.59 2452.12 543.28C2452.9 543.97 2453.81 544.495 2454.86 544.855C2455.94 545.215 2457.13 545.395 2458.42 545.395C2459.71 545.395 2460.88 545.215 2461.93 544.855C2463.01 544.495 2463.92 543.97 2464.67 543.28C2465.45 542.59 2466.05 541.765 2466.47 540.805C2466.89 539.815 2467.1 538.705 2467.1 537.475C2467.1 535.975 2466.71 534.625 2465.93 533.425C2465.18 532.195 2464.15 531.22 2462.83 530.5C2461.54 529.78 2460.07 529.42 2458.42 529.42C2456.77 529.42 2455.28 529.78 2453.96 530.5C2452.67 531.22 2451.64 532.195 2450.86 533.425C2450.11 534.625 2449.73 535.975 2449.73 537.475ZM2453.38 537.925C2453.38 536.935 2453.59 536.05 2454.01 535.27C2454.46 534.49 2455.06 533.89 2455.81 533.47C2456.59 533.02 2457.46 532.795 2458.42 532.795C2459.41 532.795 2460.28 533.02 2461.03 533.47C2461.78 533.89 2462.36 534.49 2462.78 535.27C2463.23 536.05 2463.46 536.935 2463.46 537.925C2463.46 538.915 2463.22 539.785 2462.74 540.535C2462.29 541.285 2461.67 541.87 2460.89 542.29C2460.14 542.71 2459.32 542.92 2458.42 542.92C2457.52 542.92 2456.68 542.71 2455.9 542.29C2455.15 541.87 2454.53 541.285 2454.05 540.535C2453.6 539.785 2453.38 538.915 2453.38 537.925ZM2448.61 552.82C2448.61 554.05 2448.85 555.205 2449.33 556.285C2449.84 557.365 2450.53 558.325 2451.4 559.165C2452.3 560.005 2453.33 560.665 2454.5 561.145C2455.7 561.595 2457.01 561.82 2458.42 561.82C2459.83 561.82 2461.12 561.595 2462.29 561.145C2463.49 560.665 2464.52 560.005 2465.39 559.165C2466.29 558.325 2466.98 557.365 2467.46 556.285C2467.97 555.205 2468.23 554.05 2468.23 552.82C2468.23 551.38 2467.96 550.105 2467.42 548.995C2466.91 547.855 2466.19 546.91 2465.26 546.16C2464.36 545.38 2463.31 544.795 2462.11 544.405C2460.94 544.015 2459.71 543.82 2458.42 543.82C2457.13 543.82 2455.88 544.015 2454.68 544.405C2453.51 544.795 2452.46 545.38 2451.53 546.16C2450.63 546.91 2449.91 547.855 2449.37 548.995C2448.86 550.105 2448.61 551.38 2448.61 552.82ZM2452.25 552.37C2452.25 551.23 2452.54 550.21 2453.11 549.31C2453.71 548.38 2454.47 547.645 2455.4 547.105C2456.36 546.565 2457.37 546.295 2458.42 546.295C2459.47 546.295 2460.46 546.565 2461.39 547.105C2462.35 547.645 2463.11 548.38 2463.68 549.31C2464.28 550.21 2464.58 551.23 2464.58 552.37C2464.58 553.66 2464.28 554.755 2463.68 555.655C2463.11 556.555 2462.35 557.245 2461.39 557.725C2460.46 558.205 2459.47 558.445 2458.42 558.445C2457.37 558.445 2456.36 558.205 2455.4 557.725C2454.47 557.245 2453.71 556.555 2453.11 555.655C2452.54 554.755 2452.25 553.66 2452.25 552.37ZM2494.28 551.02C2494.28 548.92 2493.88 547.075 2493.07 545.485C2492.26 543.895 2491.13 542.65 2489.69 541.75C2488.28 540.85 2486.68 540.4 2484.88 540.4C2484.1 540.4 2483.3 540.505 2482.49 540.715C2481.71 540.895 2480.95 541.18 2480.2 541.57L2482.31 533.245H2494.19V529.87H2479.34L2475.2 546.655C2476.28 545.905 2477.23 545.335 2478.04 544.945C2478.88 544.525 2479.7 544.24 2480.51 544.09C2481.35 543.91 2482.27 543.82 2483.26 543.82C2484.61 543.82 2485.81 544.12 2486.86 544.72C2487.94 545.32 2488.78 546.16 2489.38 547.24C2490.01 548.32 2490.32 549.58 2490.32 551.02C2490.32 552.46 2490.04 553.72 2489.47 554.8C2488.93 555.88 2488.13 556.72 2487.08 557.32C2486.03 557.92 2484.76 558.22 2483.26 558.22C2482.12 558.22 2481.02 557.98 2479.97 557.5C2478.92 556.99 2477.99 556.345 2477.18 555.565C2476.4 554.755 2475.77 553.9 2475.29 553L2472.05 555.205C2472.74 556.405 2473.58 557.515 2474.57 558.535C2475.59 559.525 2476.81 560.32 2478.22 560.92C2479.66 561.52 2481.34 561.82 2483.26 561.82C2484.79 561.82 2486.21 561.595 2487.53 561.145C2488.85 560.695 2490.02 560.02 2491.04 559.12C2492.06 558.22 2492.86 557.095 2493.43 555.745C2494 554.395 2494.28 552.82 2494.28 551.02ZM2199.74 597.62C2199.74 595.16 2200.28 593.015 2201.36 591.185C2202.47 589.325 2203.91 587.87 2205.68 586.82C2207.45 585.77 2209.37 585.245 2211.44 585.245C2212.94 585.245 2214.3 585.44 2215.53 585.83C2216.79 586.22 2217.93 586.775 2218.95 587.495C2219.97 588.185 2220.84 588.995 2221.56 589.925V584.885C2220.24 583.715 2218.8 582.845 2217.24 582.275C2215.68 581.705 2213.75 581.42 2211.44 581.42C2209.25 581.42 2207.19 581.825 2205.27 582.635C2203.38 583.415 2201.72 584.54 2200.28 586.01C2198.84 587.45 2197.71 589.16 2196.9 591.14C2196.09 593.12 2195.69 595.28 2195.69 597.62C2195.69 599.96 2196.09 602.12 2196.9 604.1C2197.71 606.08 2198.84 607.805 2200.28 609.275C2201.72 610.715 2203.38 611.84 2205.27 612.65C2207.19 613.43 2209.25 613.82 2211.44 613.82C2213.75 613.82 2215.68 613.535 2217.24 612.965C2218.8 612.395 2220.24 611.525 2221.56 610.355V605.315C2220.84 606.245 2219.97 607.07 2218.95 607.79C2217.93 608.48 2216.79 609.02 2215.53 609.41C2214.3 609.8 2212.94 609.995 2211.44 609.995C2209.37 609.995 2207.45 609.47 2205.68 608.42C2203.91 607.37 2202.47 605.915 2201.36 604.055C2200.28 602.195 2199.74 600.05 2199.74 597.62ZM2228.07 581.87V603.02C2228.07 604.58 2228.31 606.02 2228.79 607.34C2229.3 608.66 2230.02 609.8 2230.95 610.76C2231.91 611.72 2233.05 612.47 2234.37 613.01C2235.69 613.55 2237.16 613.82 2238.78 613.82C2240.4 613.82 2241.87 613.55 2243.19 613.01C2244.51 612.47 2245.63 611.72 2246.56 610.76C2247.52 609.8 2248.24 608.66 2248.72 607.34C2249.23 606.02 2249.49 604.58 2249.49 603.02V581.87H2245.66V603.02C2245.66 605.18 2245.08 606.92 2243.91 608.24C2242.74 609.56 2241.03 610.22 2238.78 610.22C2236.53 610.22 2234.82 609.56 2233.65 608.24C2232.48 606.92 2231.89 605.18 2231.89 603.02V581.87H2228.07ZM2259.48 596.72H2264.56C2266.45 596.72 2268.09 596.45 2269.47 595.91C2270.88 595.37 2271.97 594.575 2272.75 593.525C2273.53 592.475 2273.92 591.215 2273.92 589.745C2273.92 587.945 2273.53 586.475 2272.75 585.335C2271.97 584.165 2270.88 583.295 2269.47 582.725C2268.09 582.155 2266.45 581.87 2264.56 581.87H2256.46V613.37H2265.01C2267.05 613.37 2268.87 613.04 2270.46 612.38C2272.08 611.69 2273.35 610.67 2274.28 609.32C2275.24 607.94 2275.72 606.215 2275.72 604.145C2275.72 602.705 2275.45 601.46 2274.91 600.41C2274.37 599.36 2273.61 598.505 2272.62 597.845C2271.66 597.155 2270.53 596.645 2269.24 596.315C2267.95 595.985 2266.54 595.82 2265.01 595.82H2259.48V597.935H2265.01C2266.03 597.935 2266.96 598.07 2267.8 598.34C2268.64 598.58 2269.36 598.955 2269.96 599.465C2270.59 599.975 2271.07 600.605 2271.4 601.355C2271.73 602.105 2271.9 602.96 2271.9 603.92C2271.9 605.21 2271.6 606.305 2271 607.205C2270.43 608.105 2269.62 608.795 2268.57 609.275C2267.55 609.755 2266.36 609.995 2265.01 609.995H2260.29V585.245H2264.56C2266.15 585.245 2267.47 585.665 2268.52 586.505C2269.57 587.315 2270.1 588.47 2270.1 589.97C2270.1 590.96 2269.86 591.8 2269.38 592.49C2268.9 593.18 2268.24 593.705 2267.4 594.065C2266.56 594.425 2265.61 594.605 2264.56 594.605H2259.48V596.72ZM2281.56 581.87V613.37H2285.38V581.87H2281.56ZM2294.84 597.62C2294.84 595.16 2295.38 593.015 2296.46 591.185C2297.57 589.325 2299.01 587.87 2300.78 586.82C2302.55 585.77 2304.47 585.245 2306.54 585.245C2308.04 585.245 2309.4 585.44 2310.63 585.83C2311.89 586.22 2313.03 586.775 2314.05 587.495C2315.07 588.185 2315.94 588.995 2316.66 589.925V584.885C2315.34 583.715 2313.9 582.845 2312.34 582.275C2310.78 581.705 2308.85 581.42 2306.54 581.42C2304.35 581.42 2302.29 581.825 2300.37 582.635C2298.48 583.415 2296.82 584.54 2295.38 586.01C2293.94 587.45 2292.81 589.16 2292 591.14C2291.19 593.12 2290.79 595.28 2290.79 597.62C2290.79 599.96 2291.19 602.12 2292 604.1C2292.81 606.08 2293.94 607.805 2295.38 609.275C2296.82 610.715 2298.48 611.84 2300.37 612.65C2302.29 613.43 2304.35 613.82 2306.54 613.82C2308.85 613.82 2310.78 613.535 2312.34 612.965C2313.9 612.395 2315.34 611.525 2316.66 610.355V605.315C2315.94 606.245 2315.07 607.07 2314.05 607.79C2313.03 608.48 2311.89 609.02 2310.63 609.41C2309.4 609.8 2308.04 609.995 2306.54 609.995C2304.47 609.995 2302.55 609.47 2300.78 608.42C2299.01 607.37 2297.57 605.915 2296.46 604.055C2295.38 602.195 2294.84 600.05 2294.84 597.62ZM2339 585.47H2353.08V581.87H2339V585.47ZM2339 598.07H2352.63V594.47H2339V598.07ZM2336.88 581.87V613.37H2340.71V581.87H2336.88ZM2361.5 613.37H2377.38V609.77H2361.5V613.37ZM2361.5 585.47H2377.38V581.87H2361.5V585.47ZM2361.5 598.07H2376.48V594.47H2361.5V598.07ZM2359.38 581.87V613.37H2363.21V581.87H2359.38ZM2386.24 613.37H2402.12V609.77H2386.24V613.37ZM2386.24 585.47H2402.12V581.87H2386.24V585.47ZM2386.24 598.07H2401.22V594.47H2386.24V598.07ZM2384.12 581.87V613.37H2387.95V581.87H2384.12ZM2405.72 585.47H2413.82V613.37H2417.64V585.47H2425.74V581.87H2405.72V585.47Z" fill="white"/>
<path d="M2250.44 865.324H2246.09V851.648C2246.09 850.263 2245.54 848.936 2244.56 847.957C2243.58 846.978 2242.25 846.428 2240.87 846.428H2230.43C2229.05 846.438 2227.72 846.991 2226.75 847.968C2225.77 848.944 2225.22 850.266 2225.21 851.648V865.324H2220.86C2218.55 865.324 2216.34 866.24 2214.71 867.872C2213.07 869.503 2212.16 871.716 2212.16 874.024V903.394C2212.16 905.702 2213.07 907.915 2214.71 909.546C2216.34 911.178 2218.55 912.094 2220.86 912.094H2222.6V912.129C2222.6 913.052 2222.96 913.937 2223.62 914.59C2224.27 915.242 2225.16 915.609 2226.08 915.609C2227 915.609 2227.89 915.242 2228.54 914.59C2229.19 913.937 2229.56 913.052 2229.56 912.129V912.094H2241.74V912.129C2241.74 913.052 2242.1 913.937 2242.76 914.59C2243.41 915.242 2244.29 915.609 2245.22 915.609C2246.14 915.609 2247.03 915.242 2247.68 914.59C2248.33 913.937 2248.7 913.052 2248.7 912.129V912.094H2250.44C2252.74 912.094 2254.96 911.178 2256.59 909.546C2258.22 907.915 2259.14 905.702 2259.14 903.394V874.024C2259.14 871.716 2258.22 869.503 2256.59 867.872C2254.96 866.24 2252.74 865.324 2250.44 865.324ZM2228.69 851.648C2228.7 851.188 2228.88 850.75 2229.21 850.425C2229.53 850.1 2229.97 849.915 2230.43 849.908H2240.87C2241.33 849.908 2241.77 850.091 2242.1 850.417C2242.42 850.744 2242.61 851.186 2242.61 851.648V865.359H2228.69V851.648ZM2255.66 903.394C2255.66 904.779 2255.11 906.106 2254.13 907.085C2253.15 908.064 2251.82 908.614 2250.44 908.614H2220.86C2219.47 908.614 2218.15 908.064 2217.17 907.085C2216.19 906.106 2215.64 904.779 2215.64 903.394V874.024C2215.65 872.642 2216.2 871.32 2217.18 870.344C2218.15 869.367 2219.48 868.814 2220.86 868.804H2250.44C2251.82 868.804 2253.15 869.354 2254.13 870.333C2255.11 871.312 2255.66 872.639 2255.66 874.024V903.394Z" fill="#F8F8F8"/>
<path d="M2331.92 865.324H2327.57V851.648C2327.57 850.263 2327.02 848.936 2326.04 847.957C2325.06 846.978 2323.73 846.428 2322.35 846.428H2311.91C2310.53 846.438 2309.21 846.991 2308.23 847.968C2307.25 848.944 2306.7 850.266 2306.69 851.648V865.324H2302.34C2300.03 865.324 2297.82 866.24 2296.19 867.872C2294.56 869.503 2293.64 871.716 2293.64 874.024V903.394C2293.64 905.702 2294.56 907.915 2296.19 909.546C2297.82 911.178 2300.03 912.094 2302.34 912.094H2304.08V912.129C2304.08 913.052 2304.45 913.937 2305.1 914.59C2305.75 915.242 2306.64 915.609 2307.56 915.609C2308.48 915.609 2309.37 915.242 2310.02 914.59C2310.67 913.937 2311.04 913.052 2311.04 912.129V912.094H2323.22V912.129C2323.22 913.052 2323.59 913.937 2324.24 914.59C2324.89 915.242 2325.78 915.609 2326.7 915.609C2327.62 915.609 2328.51 915.242 2329.16 914.59C2329.81 913.937 2330.18 913.052 2330.18 912.129V912.094H2331.92C2334.23 912.094 2336.44 911.178 2338.07 909.546C2339.7 907.915 2340.62 905.702 2340.62 903.394V874.024C2340.62 871.716 2339.7 869.503 2338.07 867.872C2336.44 866.24 2334.23 865.324 2331.92 865.324ZM2310.17 851.648C2310.18 851.188 2310.36 850.75 2310.69 850.425C2311.01 850.1 2311.45 849.915 2311.91 849.908H2322.35C2322.81 849.908 2323.25 850.091 2323.58 850.417C2323.91 850.744 2324.09 851.186 2324.09 851.648V865.359H2310.17V851.648ZM2337.14 903.394C2337.14 904.779 2336.59 906.106 2335.61 907.085C2334.63 908.064 2333.3 908.614 2331.92 908.614H2302.34C2300.96 908.614 2299.63 908.064 2298.65 907.085C2297.67 906.106 2297.12 904.779 2297.12 903.394V874.024C2297.13 872.642 2297.68 871.32 2298.66 870.344C2299.64 869.367 2300.96 868.814 2302.34 868.804H2331.92C2333.3 868.804 2334.63 869.354 2335.61 870.333C2336.59 871.312 2337.14 872.639 2337.14 874.024V903.394Z" fill="#F8F8F8"/>
<path d="M2413.4 865.324H2409.05V851.648C2409.05 850.263 2408.5 848.936 2407.52 847.957C2406.54 846.978 2405.21 846.428 2403.83 846.428H2393.39C2392.01 846.438 2390.69 846.991 2389.71 847.968C2388.73 848.944 2388.18 850.266 2388.17 851.648V865.324H2383.82C2381.51 865.324 2379.3 866.24 2377.67 867.872C2376.04 869.503 2375.12 871.716 2375.12 874.024V903.394C2375.12 905.702 2376.04 907.915 2377.67 909.546C2379.3 911.178 2381.51 912.094 2383.82 912.094H2385.56V912.129C2385.56 913.052 2385.93 913.937 2386.58 914.59C2387.23 915.242 2388.12 915.609 2389.04 915.609C2389.96 915.609 2390.85 915.242 2391.5 914.59C2392.15 913.937 2392.52 913.052 2392.52 912.129V912.094H2404.7V912.129C2404.7 913.052 2405.07 913.937 2405.72 914.59C2406.37 915.242 2407.26 915.609 2408.18 915.609C2409.1 915.609 2409.99 915.242 2410.64 914.59C2411.29 913.937 2411.66 913.052 2411.66 912.129V912.094H2413.4C2415.71 912.094 2417.92 911.178 2419.55 909.546C2421.18 907.915 2422.1 905.702 2422.1 903.394V874.024C2422.1 871.716 2421.18 869.503 2419.55 867.872C2417.92 866.24 2415.71 865.324 2413.4 865.324ZM2391.65 851.648C2391.66 851.188 2391.84 850.75 2392.17 850.425C2392.49 850.1 2392.93 849.915 2393.39 849.908H2403.83C2404.29 849.908 2404.73 850.091 2405.06 850.417C2405.39 850.744 2405.57 851.186 2405.57 851.648V865.359H2391.65V851.648ZM2418.62 903.394C2418.62 904.779 2418.07 906.106 2417.09 907.085C2416.11 908.064 2414.78 908.614 2413.4 908.614H2383.82C2382.44 908.614 2381.11 908.064 2380.13 907.085C2379.15 906.106 2378.6 904.779 2378.6 903.394V874.024C2378.61 872.642 2379.16 871.32 2380.14 870.344C2381.12 869.367 2382.44 868.814 2383.82 868.804H2413.4C2414.78 868.804 2416.11 869.354 2417.09 870.333C2418.07 871.312 2418.62 872.639 2418.62 874.024V903.394Z" fill="#F8F8F8"/>
<path d="M2494.88 865.324H2490.53V851.648C2490.53 850.263 2489.98 848.936 2489 847.957C2488.02 846.978 2486.7 846.428 2485.31 846.428H2474.87C2473.49 846.438 2472.17 846.991 2471.19 847.968C2470.22 848.944 2469.66 850.266 2469.65 851.648V865.324H2465.3C2463 865.324 2460.78 866.24 2459.15 867.872C2457.52 869.503 2456.6 871.716 2456.6 874.024V903.394C2456.6 905.702 2457.52 907.915 2459.15 909.546C2460.78 911.178 2463 912.094 2465.3 912.094H2467.04V912.129C2467.04 913.052 2467.41 913.937 2468.06 914.59C2468.71 915.242 2469.6 915.609 2470.52 915.609C2471.45 915.609 2472.33 915.242 2472.98 914.59C2473.64 913.937 2474 913.052 2474 912.129V912.094H2486.18V912.129C2486.18 913.052 2486.55 913.937 2487.2 914.59C2487.85 915.242 2488.74 915.609 2489.66 915.609C2490.58 915.609 2491.47 915.242 2492.12 914.59C2492.78 913.937 2493.14 913.052 2493.14 912.129V912.094H2494.88C2497.19 912.094 2499.4 911.178 2501.03 909.546C2502.67 907.915 2503.58 905.702 2503.58 903.394V874.024C2503.58 871.716 2502.67 869.503 2501.03 867.872C2499.4 866.24 2497.19 865.324 2494.88 865.324ZM2473.13 851.648C2473.14 851.188 2473.33 850.75 2473.65 850.425C2473.97 850.1 2474.41 849.915 2474.87 849.908H2485.31C2485.77 849.908 2486.22 850.091 2486.54 850.417C2486.87 850.744 2487.05 851.186 2487.05 851.648V865.359H2473.13V851.648ZM2500.1 903.394C2500.1 904.779 2499.55 906.106 2498.57 907.085C2497.59 908.064 2496.27 908.614 2494.88 908.614H2465.3C2463.92 908.614 2462.59 908.064 2461.61 907.085C2460.63 906.106 2460.08 904.779 2460.08 903.394V874.024C2460.09 872.642 2460.65 871.32 2461.62 870.344C2462.6 869.367 2463.92 868.814 2465.3 868.804H2494.88C2496.27 868.804 2497.59 869.354 2498.57 870.333C2499.55 871.312 2500.1 872.639 2500.1 874.024V903.394Z" fill="#F8F8F8"/>
<path d="M2156.93 278.984L2189.7 295.369" stroke="#4C5470"/>
<path d="M2146.02 176.781C2146.02 178.285 2146.61 179.727 2147.67 180.791C2148.73 181.854 2150.17 182.451 2151.67 182.451C2153.17 182.451 2154.6 181.854 2155.66 180.791C2156.72 179.727 2157.32 178.285 2157.32 176.781C2157.32 175.278 2156.72 173.835 2155.66 172.772C2154.6 171.709 2153.17 171.111 2151.67 171.111C2150.17 171.111 2148.73 171.709 2147.67 172.772C2146.61 173.835 2146.02 175.278 2146.02 176.781ZM2178.04 171.111C2179.54 171.111 2180.98 171.709 2182.04 172.772C2183.1 173.835 2183.69 175.278 2183.69 176.781C2183.69 178.285 2183.1 179.727 2182.04 180.791C2180.98 181.854 2179.54 182.451 2178.04 182.451C2176.54 182.451 2175.1 181.854 2174.04 180.791C2172.98 179.727 2172.39 178.285 2172.39 176.781C2172.39 175.278 2172.98 173.835 2174.04 172.772C2175.1 171.709 2176.54 171.111 2178.04 171.111ZM2147.11 186.231C2146.44 186.231 2145.79 186.408 2145.22 186.742C2144.64 187.077 2144.17 187.558 2143.84 188.136L2136.85 200.414C2136.72 200.629 2136.63 200.869 2136.59 201.118C2136.56 201.368 2136.57 201.622 2136.64 201.866C2136.7 202.109 2136.81 202.338 2136.96 202.538C2137.12 202.738 2137.31 202.906 2137.52 203.031C2137.74 203.156 2137.98 203.236 2138.23 203.266C2138.48 203.296 2138.73 203.276 2138.98 203.207C2139.22 203.138 2139.44 203.021 2139.64 202.863C2139.83 202.706 2140 202.51 2140.12 202.289V202.289C2140.67 201.309 2142.2 202.009 2141.82 203.072C2140.95 205.569 2140.07 208.068 2139.21 210.57C2138.85 211.609 2139.62 212.691 2140.72 212.691H2142.88C2144.61 212.691 2146.02 214.096 2146.02 215.83V222.141C2146.02 222.642 2146.21 223.123 2146.57 223.477C2146.92 223.832 2147.4 224.031 2147.9 224.031C2148.4 224.031 2148.88 223.832 2149.23 223.477C2149.59 223.123 2149.78 222.642 2149.78 222.141V214.575C2149.78 213.534 2150.63 212.691 2151.67 212.691V212.691C2152.71 212.691 2153.55 213.534 2153.55 214.575V222.141C2153.55 222.642 2153.75 223.123 2154.1 223.477C2154.46 223.832 2154.94 224.031 2155.44 224.031C2155.93 224.031 2156.41 223.832 2156.77 223.477C2157.12 223.123 2157.32 222.642 2157.32 222.141V215.808C2157.32 214.087 2158.71 212.691 2160.44 212.691H2162.49C2163.64 212.691 2164.45 211.549 2164.06 210.462L2161.44 203.103C2161.04 201.974 2162.63 201.247 2163.22 202.289V202.289C2163.34 202.51 2163.5 202.706 2163.7 202.863C2163.89 203.021 2164.12 203.138 2164.36 203.207C2164.6 203.276 2164.85 203.296 2165.1 203.266C2165.35 203.236 2165.59 203.156 2165.81 203.031C2166.03 202.906 2166.22 202.738 2166.37 202.538C2166.52 202.338 2166.64 202.109 2166.7 201.866C2166.76 201.622 2166.78 201.368 2166.74 201.118C2166.7 200.869 2166.62 200.629 2166.49 200.414L2159.5 188.136C2159.17 187.558 2158.69 187.077 2158.12 186.742C2157.54 186.408 2156.89 186.231 2156.23 186.231H2147.11ZM2168.62 188.121C2168.62 187.62 2168.82 187.139 2169.17 186.785C2169.53 186.43 2170.01 186.231 2170.51 186.231H2185.58C2186.08 186.231 2186.55 186.43 2186.91 186.785C2187.26 187.139 2187.46 187.62 2187.46 188.121V207.021C2187.46 207.522 2187.26 208.003 2186.91 208.357C2186.55 208.712 2186.08 208.911 2185.58 208.911C2185.08 208.911 2184.6 208.712 2184.24 208.357C2183.89 208.003 2183.69 207.522 2183.69 207.021V222.141C2183.69 222.642 2183.49 223.123 2183.14 223.477C2182.79 223.832 2182.31 224.031 2181.81 224.031C2181.31 224.031 2180.83 223.832 2180.48 223.477C2180.12 223.123 2179.92 222.642 2179.92 222.141V208.905C2179.92 207.864 2179.08 207.021 2178.04 207.021V207.021C2177 207.021 2176.16 207.864 2176.16 208.905V222.141C2176.16 222.642 2175.96 223.123 2175.6 223.477C2175.25 223.832 2174.77 224.031 2174.27 224.031C2173.77 224.031 2173.29 223.832 2172.94 223.477C2172.59 223.123 2172.39 222.642 2172.39 222.141V207.021C2172.39 207.522 2172.19 208.003 2171.84 208.357C2171.48 208.712 2171 208.911 2170.51 208.911C2170.01 208.911 2169.53 208.712 2169.17 208.357C2168.82 208.003 2168.62 207.522 2168.62 207.021V188.121Z" fill="white"/>
<mask id="path-82-inside-1_499_2" fill="white">
<path d="M2061.48 103.889H2275.37V274.074C2275.37 276.835 2273.13 279.074 2270.37 279.074H2061.48V103.889Z"/>
</mask>
<path fill-rule="evenodd" clip-rule="evenodd" d="M2062.49 278.574V279.574V280.074H2061.48V279.574V279.074V278.574V278.074H2062.49V278.574ZM2064.49 278.074V278.574V279.574V280.074H2066.5V279.574V278.574V278.074H2064.49ZM2068.51 278.074V278.574V279.574V280.074H2070.52V279.574V278.574V278.074H2068.51ZM2072.53 278.074V278.574V279.574V280.074H2074.54V279.574V278.574V278.074H2072.53ZM2076.55 278.074V278.574V279.574V280.074H2078.55V279.574V278.574V278.074H2076.55ZM2080.56 278.074V278.574V279.574V280.074H2082.57V279.574V278.574V278.074H2080.56ZM2084.58 278.074V278.574V279.574V280.074H2086.59V279.574V278.574V278.074H2084.58ZM2088.6 278.074V278.574V279.574V280.074H2090.61V279.574V278.574V278.074H2088.6ZM2092.61 278.074V278.574V279.574V280.074H2094.62V279.574V278.574V278.074H2092.61ZM2096.63 278.074V278.574V279.574V280.074H2098.64V279.574V278.574V278.074H2096.63ZM2100.65 278.074V278.574V279.574V280.074H2102.66V279.574V278.574V278.074H2100.65ZM2104.67 278.074V278.574V279.574V280.074H2106.67V279.574V278.574V278.074H2104.67ZM2108.68 278.074V278.574V279.574V280.074H2110.69V279.574V278.574V278.074H2108.68ZM2112.7 278.074V278.574V279.574V280.074H2114.71V279.574V278.574V278.074H2112.7ZM2116.72 278.074V278.574V279.574V280.074H2118.73V279.574V278.574V278.074H2116.72ZM2120.73 278.074V278.574V279.574V280.074H2122.74V279.574V278.574V278.074H2120.73ZM2124.75 278.074V278.574V279.574V280.074H2126.76V279.574V278.574V278.074H2124.75ZM2128.77 278.074V278.574V279.574V280.074H2130.78V279.574V278.574V278.074H2128.77ZM2132.78 278.074V278.574V279.574V280.074H2134.79V279.574V278.574V278.074H2132.78ZM2136.8 278.074V278.574V279.574V280.074H2138.81V279.574V278.574V278.074H2136.8ZM2140.82 278.074V278.574V279.574V280.074H2142.83V279.574V278.574V278.074H2140.82ZM2144.84 278.074V278.574V279.574V280.074H2146.84V279.574V278.574V278.074H2144.84ZM2148.85 278.074V278.574V279.574V280.074H2150.86V279.574V278.574V278.074H2148.85ZM2152.87 278.074V278.574V279.574V280.074H2154.88V279.574V278.574V278.074H2152.87ZM2156.89 278.074V278.574V279.574V280.074H2158.9V279.574V278.574V278.074H2156.89ZM2160.9 278.074V278.574V279.574V280.074H2162.91V279.574V278.574V278.074H2160.9ZM2164.92 278.074V278.574V279.574V280.074H2166.93V279.574V278.574V278.074H2164.92ZM2168.94 278.074V278.574V279.574V280.074H2170.95V279.574V278.574V278.074H2168.94ZM2172.96 278.074V278.574V279.574V280.074H2174.96V279.574V278.574V278.074H2172.96ZM2176.97 278.074V278.574V279.574V280.074H2178.98V279.574V278.574V278.074H2176.97ZM2180.99 278.074V278.574V279.574V280.074H2183V279.574V278.574V278.074H2180.99ZM2185.01 278.074V278.574V279.574V280.074H2187.02V279.574V278.574V278.074H2185.01ZM2189.02 278.074V278.574V279.574V280.074H2191.03V279.574V278.574V278.074H2189.02ZM2193.04 278.074V278.574V279.574V280.074H2195.05V279.574V278.574V278.074H2193.04ZM2197.06 278.074V278.574V279.574V280.074H2199.07V279.574V278.574V278.074H2197.06ZM2201.08 278.074V278.574V279.574V280.074H2203.08V279.574V278.574V278.074H2201.08ZM2205.09 278.074V278.574V279.574V280.074H2207.1V279.574V278.574V278.074H2205.09ZM2209.11 278.074V278.574V279.574V280.074H2211.12V279.574V278.574V278.074H2209.11ZM2213.13 278.074V278.574V279.574V280.074H2215.14V279.574V278.574V278.074H2213.13ZM2217.14 278.074V278.574V279.574V280.074H2219.15V279.574V278.574V278.074H2217.14ZM2221.16 278.074V278.574V279.574V280.074H2223.17V279.574V278.574V278.074H2221.16ZM2225.18 278.074V278.574V279.574V280.074H2227.19V279.574V278.574V278.074H2225.18ZM2229.2 278.074V278.574V279.574V280.074H2231.2V279.574V278.574V278.074H2229.2ZM2233.21 278.074V278.574V279.574V280.074H2235.22V279.574V278.574V278.074H2233.21ZM2237.23 278.074V278.574V279.574V280.074H2239.24V279.574V278.574V278.074H2237.23ZM2241.25 278.074V278.574V279.574V280.074H2243.25V279.574V278.574V278.074H2241.25ZM2245.26 278.074V278.574V279.574V280.074H2247.27V279.574V278.574V278.074H2245.26ZM2249.28 278.074V278.574V279.574V280.074H2251.29V279.574V278.574V278.074H2249.28ZM2253.3 278.074V278.574V279.574V280.074H2255.31V279.574V278.574V278.074H2253.3ZM2257.31 278.074V278.574V279.574V280.074H2259.32V279.574V278.574V278.074H2257.31ZM2261.33 278.074V278.574V279.574V280.074H2263.34V279.574V278.574V278.074H2261.33ZM2265.35 278.074V278.574V279.574V280.074H2267.36V279.574V278.574V278.074H2265.35ZM2269.37 278.074V278.574V279.574V280.074H2270.37C2270.62 280.074 2270.87 280.059 2271.11 280.029C2271.25 280.011 2271.4 279.988 2271.54 279.96L2271.44 279.469L2271.25 278.488L2271.15 277.998C2271.07 278.013 2271 278.026 2270.92 278.037C2270.74 278.061 2270.56 278.074 2270.37 278.074H2269.37ZM2273.43 278.647L2272.87 277.816L2272.59 277.401C2273.03 277.108 2273.4 276.732 2273.7 276.296L2274.11 276.574L2274.94 277.13L2275.36 277.408C2274.92 278.062 2274.36 278.624 2273.71 279.062C2273.71 279.062 2273.71 279.062 2273.7 279.063L2273.43 278.647ZM2275.77 275.147L2274.78 274.953L2274.29 274.856C2274.31 274.761 2274.33 274.665 2274.34 274.568C2274.36 274.407 2274.37 274.242 2274.37 274.074V273.084H2274.87H2275.87H2276.37V274.074C2276.37 274.349 2276.35 274.62 2276.32 274.887C2276.3 275.007 2276.28 275.126 2276.26 275.244L2275.77 275.147ZM2276.37 271.105V269.127H2275.87H2274.87H2274.37V271.105H2274.87H2275.87H2276.37ZM2274.37 267.148H2274.87H2275.87H2276.37V265.169H2275.87H2274.87H2274.37V267.148ZM2274.37 263.19H2274.87H2275.87H2276.37V261.211H2275.87H2274.87H2274.37V263.19ZM2274.37 259.232H2274.87H2275.87H2276.37V257.253H2275.87H2274.87H2274.37V259.232ZM2274.37 255.274H2274.87H2275.87H2276.37V253.295H2275.87H2274.87H2274.37V255.274ZM2274.37 251.317H2274.87H2275.87H2276.37V249.338H2275.87H2274.87H2274.37V251.317ZM2274.37 247.359H2274.87H2275.87H2276.37V245.38H2275.87H2274.87H2274.37V247.359ZM2274.37 243.401H2274.87H2275.87H2276.37V241.422H2275.87H2274.87H2274.37V243.401ZM2274.37 239.443H2274.87H2275.87H2276.37V237.464H2275.87H2274.87H2274.37V239.443ZM2274.37 235.485H2274.87H2275.87H2276.37V233.506H2275.87H2274.87H2274.37V235.485ZM2274.37 231.528H2274.87H2275.87H2276.37V229.549H2275.87H2274.87H2274.37V231.528ZM2274.37 227.57H2274.87H2275.87H2276.37V225.591H2275.87H2274.87H2274.37V227.57ZM2274.37 223.612H2274.87H2275.87H2276.37V221.633H2275.87H2274.87H2274.37V223.612ZM2274.37 219.654H2274.87H2275.87H2276.37V217.675H2275.87H2274.87H2274.37V219.654ZM2274.37 215.696H2274.87H2275.87H2276.37V213.717H2275.87H2274.87H2274.37V215.696ZM2274.37 211.739H2274.87H2275.87H2276.37V209.76H2275.87H2274.87H2274.37V211.739ZM2274.37 207.781H2274.87H2275.87H2276.37V205.802H2275.87H2274.87H2274.37V207.781ZM2274.37 203.823H2274.87H2275.87H2276.37V201.844H2275.87H2274.87H2274.37V203.823ZM2274.37 199.865H2274.87H2275.87H2276.37V197.886H2275.87H2274.87H2274.37V199.865ZM2274.37 195.907H2274.87H2275.87H2276.37V193.929H2275.87H2274.87H2274.37V195.907ZM2274.37 191.95H2274.87H2275.87H2276.37V189.971H2275.87H2274.87H2274.37V191.95ZM2274.37 187.992H2274.87H2275.87H2276.37V186.013H2275.87H2274.87H2274.37V187.992ZM2274.37 184.034H2274.87H2275.87H2276.37V182.055H2275.87H2274.87H2274.37V184.034ZM2274.37 180.076H2274.87H2275.87H2276.37V178.097H2275.87H2274.87H2274.37V180.076ZM2274.37 176.118H2274.87H2275.87H2276.37V174.14H2275.87H2274.87H2274.37V176.118ZM2274.37 172.161H2274.87H2275.87H2276.37V170.182H2275.87H2274.87H2274.37V172.161ZM2274.37 168.203H2274.87H2275.87H2276.37V166.224H2275.87H2274.87H2274.37V168.203ZM2274.37 164.245H2274.87H2275.87H2276.37V162.266H2275.87H2274.87H2274.37V164.245ZM2274.37 160.287H2274.87H2275.87H2276.37V158.308H2275.87H2274.87H2274.37V160.287ZM2274.37 156.329H2274.87H2275.87H2276.37V154.351H2275.87H2274.87H2274.37V156.329ZM2274.37 152.372H2274.87H2275.87H2276.37V150.393H2275.87H2274.87H2274.37V152.372ZM2274.37 148.414H2274.87H2275.87H2276.37V146.435H2275.87H2274.87H2274.37V148.414ZM2274.37 144.456H2274.87H2275.87H2276.37V142.477H2275.87H2274.87H2274.37V144.456ZM2274.37 140.498H2274.87H2275.87H2276.37V138.519H2275.87H2274.87H2274.37V140.498ZM2274.37 136.54H2274.87H2275.87H2276.37V134.562H2275.87H2274.87H2274.37V136.54ZM2274.37 132.583H2274.87H2275.87H2276.37V130.604H2275.87H2274.87H2274.37V132.583ZM2274.37 128.625H2274.87H2275.87H2276.37V126.646H2275.87H2274.87H2274.37V128.625ZM2274.37 124.667H2274.87H2275.87H2276.37V122.688H2275.87H2274.87H2274.37V124.667ZM2274.37 120.709H2274.87H2275.87H2276.37V118.73H2275.87H2274.87H2274.37V120.709ZM2274.37 116.752H2274.87H2275.87H2276.37V114.773H2275.87H2274.87H2274.37V116.752ZM2274.37 112.794H2274.87H2275.87H2276.37V110.815H2275.87H2274.87H2274.37V112.794ZM2274.37 108.836H2274.87H2275.87H2276.37V106.857H2275.87H2274.87H2274.37V108.836ZM2274.37 104.878H2274.87H2275.87H2276.37V103.889H2275.87H2275.37H2274.87H2274.37V104.878Z" fill="#8B8B8B" mask="url(#path-82-inside-1_499_2)"/>
<path d="M1425.04 563.444H1447.27V559.844H1432.92L1442.95 549.629C1444.18 548.369 1445.19 546.944 1445.97 545.354C1446.75 543.764 1447.14 542.159 1447.14 540.539C1447.14 539.579 1446.94 538.574 1446.55 537.524C1446.16 536.474 1445.56 535.499 1444.75 534.599C1443.94 533.669 1442.91 532.919 1441.65 532.349C1440.39 531.749 1438.89 531.449 1437.15 531.449C1434.99 531.449 1433.13 531.929 1431.57 532.889C1430.04 533.819 1428.87 535.139 1428.06 536.849C1427.25 538.529 1426.84 540.494 1426.84 542.744H1430.67C1430.67 541.154 1430.92 539.789 1431.43 538.649C1431.94 537.479 1432.68 536.594 1433.64 535.994C1434.63 535.364 1435.8 535.049 1437.15 535.049C1438.11 535.049 1438.96 535.214 1439.71 535.544C1440.46 535.874 1441.09 536.309 1441.6 536.849C1442.14 537.389 1442.55 537.989 1442.82 538.649C1443.09 539.309 1443.22 539.984 1443.22 540.674C1443.22 541.514 1443.09 542.324 1442.82 543.104C1442.58 543.854 1442.2 544.604 1441.69 545.354C1441.21 546.074 1440.63 546.809 1439.94 547.559L1425.04 563.444ZM1469.79 542.294C1469.79 543.734 1469.47 545.009 1468.84 546.119C1468.24 547.229 1467.4 548.114 1466.32 548.774C1465.27 549.404 1464.07 549.719 1462.72 549.719C1461.37 549.719 1460.16 549.404 1459.08 548.774C1458.03 548.114 1457.19 547.229 1456.56 546.119C1455.96 545.009 1455.66 543.734 1455.66 542.294C1455.66 540.854 1455.96 539.594 1456.56 538.514C1457.19 537.404 1458.03 536.534 1459.08 535.904C1460.16 535.274 1461.37 534.959 1462.72 534.959C1464.07 534.959 1465.27 535.274 1466.32 535.904C1467.4 536.534 1468.24 537.404 1468.84 538.514C1469.47 539.594 1469.79 540.854 1469.79 542.294ZM1460.83 563.444L1471.45 548.819C1472.05 547.979 1472.53 547.004 1472.89 545.894C1473.25 544.784 1473.43 543.584 1473.43 542.294C1473.43 540.134 1472.95 538.244 1471.99 536.624C1471.06 535.004 1469.79 533.744 1468.17 532.844C1466.58 531.944 1464.76 531.494 1462.72 531.494C1460.71 531.494 1458.9 531.944 1457.28 532.844C1455.66 533.744 1454.37 535.004 1453.41 536.624C1452.48 538.244 1452.01 540.134 1452.01 542.294C1452.01 543.734 1452.25 545.084 1452.73 546.344C1453.21 547.574 1453.87 548.654 1454.71 549.584C1455.58 550.514 1456.57 551.234 1457.68 551.744C1458.82 552.254 1460.04 552.509 1461.33 552.509C1462.35 552.509 1463.25 552.389 1464.03 552.149C1464.84 551.909 1465.54 551.414 1466.14 550.664L1465.87 550.439L1456.02 563.444H1460.83ZM1489.63 535.544H1497.73V563.444H1501.56V535.544H1509.66V531.944H1489.63V535.544ZM1513.71 547.694C1513.71 545.324 1514.22 543.209 1515.24 541.349C1516.29 539.489 1517.71 538.019 1519.51 536.939C1521.31 535.859 1523.35 535.319 1525.63 535.319C1527.94 535.319 1529.98 535.859 1531.75 536.939C1533.55 538.019 1534.96 539.489 1535.98 541.349C1537.03 543.209 1537.56 545.324 1537.56 547.694C1537.56 550.064 1537.03 552.179 1535.98 554.039C1534.96 555.899 1533.55 557.369 1531.75 558.449C1529.98 559.529 1527.94 560.069 1525.63 560.069C1523.35 560.069 1521.31 559.529 1519.51 558.449C1517.71 557.369 1516.29 555.899 1515.24 554.039C1514.22 552.179 1513.71 550.064 1513.71 547.694ZM1509.66 547.694C1509.66 549.974 1510.05 552.104 1510.83 554.084C1511.64 556.064 1512.76 557.789 1514.2 559.259C1515.64 560.699 1517.34 561.839 1519.29 562.679C1521.24 563.489 1523.35 563.894 1525.63 563.894C1527.94 563.894 1530.06 563.489 1531.98 562.679C1533.93 561.839 1535.62 560.699 1537.06 559.259C1538.5 557.789 1539.61 556.064 1540.39 554.084C1541.2 552.104 1541.61 549.974 1541.61 547.694C1541.61 545.384 1541.2 543.254 1540.39 541.304C1539.61 539.324 1538.5 537.614 1537.06 536.174C1535.62 534.704 1533.93 533.564 1531.98 532.754C1530.06 531.914 1527.94 531.494 1525.63 531.494C1523.35 531.494 1521.24 531.914 1519.29 532.754C1517.34 533.564 1515.64 534.704 1514.2 536.174C1512.76 537.614 1511.64 539.324 1510.83 541.304C1510.05 543.254 1509.66 545.384 1509.66 547.694ZM1542.5 535.544H1550.6V563.444H1554.42V535.544H1562.52V531.944H1542.5V535.544ZM1565.1 553.994H1581.75L1580.4 550.394H1566.45L1565.1 553.994ZM1573.33 539.054L1578.73 551.744L1579.09 552.644L1583.68 563.444H1587.96L1573.33 530.369L1558.71 563.444H1562.98L1567.66 552.374L1568.02 551.564L1573.33 539.054ZM1591.79 531.944V563.444H1607.99V559.844H1595.62V531.944H1591.79ZM1626.71 553.904L1623.65 555.974C1624.34 557.354 1625.23 558.659 1626.31 559.889C1627.42 561.089 1628.69 562.064 1630.13 562.814C1631.6 563.534 1633.19 563.894 1634.9 563.894C1636.16 563.894 1637.36 563.684 1638.5 563.264C1639.67 562.844 1640.71 562.244 1641.61 561.464C1642.54 560.684 1643.26 559.739 1643.77 558.629C1644.31 557.519 1644.58 556.274 1644.58 554.894C1644.58 553.454 1644.32 552.224 1643.81 551.204C1643.3 550.154 1642.64 549.269 1641.83 548.549C1641.05 547.799 1640.2 547.184 1639.27 546.704C1638.34 546.224 1637.45 545.834 1636.61 545.534C1634.78 544.904 1633.33 544.274 1632.25 543.644C1631.2 542.984 1630.45 542.294 1630 541.574C1629.55 540.824 1629.32 540.014 1629.32 539.144C1629.32 538.124 1629.71 537.209 1630.49 536.399C1631.27 535.559 1632.52 535.139 1634.23 535.139C1635.46 535.139 1636.49 535.379 1637.33 535.859C1638.2 536.339 1638.94 536.954 1639.54 537.704C1640.14 538.454 1640.63 539.219 1641.02 539.999L1644.31 538.109C1643.8 536.999 1643.09 535.949 1642.19 534.959C1641.29 533.939 1640.2 533.114 1638.91 532.484C1637.65 531.824 1636.16 531.494 1634.45 531.494C1632.68 531.494 1631.11 531.854 1629.73 532.574C1628.35 533.264 1627.27 534.224 1626.49 535.454C1625.71 536.684 1625.32 538.079 1625.32 539.639C1625.32 541.079 1625.59 542.294 1626.13 543.284C1626.7 544.274 1627.42 545.114 1628.29 545.804C1629.16 546.464 1630.07 547.019 1631.03 547.469C1631.99 547.889 1632.86 548.234 1633.64 548.504C1634.84 548.924 1635.97 549.404 1637.02 549.944C1638.1 550.454 1638.97 551.129 1639.63 551.969C1640.29 552.809 1640.62 553.934 1640.62 555.344C1640.62 556.784 1640.11 557.969 1639.09 558.899C1638.07 559.829 1636.72 560.294 1635.04 560.294C1633.78 560.294 1632.65 560.024 1631.66 559.484C1630.67 558.944 1629.77 558.194 1628.96 557.234C1628.18 556.274 1627.43 555.164 1626.71 553.904ZM1652.31 563.444H1668.19V559.844H1652.31V563.444ZM1652.31 535.544H1668.19V531.944H1652.31V535.544ZM1652.31 548.144H1667.29V544.544H1652.31V548.144ZM1650.19 531.944V563.444H1654.02V531.944H1650.19ZM1677.95 553.994H1694.6L1693.25 550.394H1679.3L1677.95 553.994ZM1686.19 539.054L1691.59 551.744L1691.95 552.644L1696.54 563.444H1700.81L1686.19 530.369L1671.56 563.444H1675.84L1680.52 552.374L1680.88 551.564L1686.19 539.054ZM1698.33 535.544H1706.43V563.444H1710.25V535.544H1718.35V531.944H1698.33V535.544ZM1723.57 553.904L1720.51 555.974C1721.2 557.354 1722.08 558.659 1723.16 559.889C1724.27 561.089 1725.55 562.064 1726.99 562.814C1728.46 563.534 1730.05 563.894 1731.76 563.894C1733.02 563.894 1734.22 563.684 1735.36 563.264C1736.53 562.844 1737.56 562.244 1738.46 561.464C1739.39 560.684 1740.11 559.739 1740.62 558.629C1741.16 557.519 1741.43 556.274 1741.43 554.894C1741.43 553.454 1741.18 552.224 1740.67 551.204C1740.16 550.154 1739.5 549.269 1738.69 548.549C1737.91 547.799 1737.05 547.184 1736.12 546.704C1735.19 546.224 1734.31 545.834 1733.47 545.534C1731.64 544.904 1730.18 544.274 1729.1 543.644C1728.05 542.984 1727.3 542.294 1726.85 541.574C1726.4 540.824 1726.18 540.014 1726.18 539.144C1726.18 538.124 1726.57 537.209 1727.35 536.399C1728.13 535.559 1729.37 535.139 1731.08 535.139C1732.31 535.139 1733.35 535.379 1734.19 535.859C1735.06 536.339 1735.79 536.954 1736.39 537.704C1736.99 538.454 1737.49 539.219 1737.88 539.999L1741.16 538.109C1740.65 536.999 1739.95 535.949 1739.05 534.959C1738.15 533.939 1737.05 533.114 1735.76 532.484C1734.5 531.824 1733.02 531.494 1731.31 531.494C1729.54 531.494 1727.96 531.854 1726.58 532.574C1725.2 533.264 1724.12 534.224 1723.34 535.454C1722.56 536.684 1722.17 538.079 1722.17 539.639C1722.17 541.079 1722.44 542.294 1722.98 543.284C1723.55 544.274 1724.27 545.114 1725.14 545.804C1726.01 546.464 1726.93 547.019 1727.89 547.469C1728.85 547.889 1729.72 548.234 1730.5 548.504C1731.7 548.924 1732.82 549.404 1733.87 549.944C1734.95 550.454 1735.82 551.129 1736.48 551.969C1737.14 552.809 1737.47 553.934 1737.47 555.344C1737.47 556.784 1736.96 557.969 1735.94 558.899C1734.92 559.829 1733.57 560.294 1731.89 560.294C1730.63 560.294 1729.51 560.024 1728.52 559.484C1727.53 558.944 1726.63 558.194 1725.82 557.234C1725.04 556.274 1724.29 555.164 1723.57 553.904Z" fill="white"/>
<defs>
<filter id="filter0_b_499_2" x="782.296" y="825.073" width="56.8889" height="73.1855" filterUnits="userSpaceOnUse" color-interpolation-filters="sRGB">
<feFlood flood-opacity="0" result="BackgroundImageFix"/>
<feGaussianBlur in="BackgroundImageFix" stdDeviation="2"/>
<feComposite in2="SourceAlpha" operator="in" result="effect1_backgroundBlur_499_2"/>
<feBlend mode="normal" in="SourceGraphic" in2="effect1_backgroundBlur_499_2" result="shape"/>
</filter>
<filter id="filter1_d_499_2" x="651.926" y="802.593" width="128.185" height="128.186" filterUnits="userSpaceOnUse" color-interpolation-filters="sRGB">
<feFlood flood-opacity="0" result="BackgroundImageFix"/>
<feColorMatrix in="SourceAlpha" type="matrix" values="0 0 0 0 0 0 0 0 0 0 0 0 0 0 0 0 0 0 127 0" result="hardAlpha"/>
<feOffset dy="4"/>
<feGaussianBlur stdDeviation="2"/>
<feComposite in2="hardAlpha" operator="out"/>
<feColorMatrix type="matrix" values="0 0 0 0 0.0745098 0 0 0 0 0.0980392 0 0 0 0 0.196078 0 0 0 0.74 0"/>
<feBlend mode="normal" in2="BackgroundImageFix" result="effect1_dropShadow_499_2"/>
<feBlend mode="normal" in="SourceGraphic" in2="effect1_dropShadow_499_2" result="shape"/>
</filter>
<filter id="filter2_b_499_2" x="782.296" y="181.37" width="56.8889" height="73.1855" filterUnits="userSpaceOnUse" color-interpolation-filters="sRGB">
<feFlood flood-opacity="0" result="BackgroundImageFix"/>
<feGaussianBlur in="BackgroundImageFix" stdDeviation="2"/>
<feComposite in2="SourceAlpha" operator="in" result="effect1_backgroundBlur_499_2"/>
<feBlend mode="normal" in="SourceGraphic" in2="effect1_backgroundBlur_499_2" result="shape"/>
</filter>
<filter id="filter3_d_499_2" x="651.926" y="158.889" width="128.185" height="128.186" filterUnits="userSpaceOnUse" color-interpolation-filters="sRGB">
<feFlood flood-opacity="0" result="BackgroundImageFix"/>
<feColorMatrix in="SourceAlpha" type="matrix" values="0 0 0 0 0 0 0 0 0 0 0 0 0 0 0 0 0 0 127 0" result="hardAlpha"/>
<feOffset dy="4"/>
<feGaussianBlur stdDeviation="2"/>
<feComposite in2="hardAlpha" operator="out"/>
<feColorMatrix type="matrix" values="0 0 0 0 0.0745098 0 0 0 0 0.0980392 0 0 0 0 0.196078 0 0 0 0.74 0"/>
<feBlend mode="normal" in2="BackgroundImageFix" result="effect1_dropShadow_499_2"/>
<feBlend mode="normal" in="SourceGraphic" in2="effect1_dropShadow_499_2" result="shape"/>
</filter>
<filter id="filter4_b_499_2" x="884.148" y="825.073" width="56.8887" height="73.1855" filterUnits="userSpaceOnUse" color-interpolation-filters="sRGB">
<feFlood flood-opacity="0" result="BackgroundImageFix"/>
<feGaussianBlur in="BackgroundImageFix" stdDeviation="2"/>
<feComposite in2="SourceAlpha" operator="in" result="effect1_backgroundBlur_499_2"/>
<feBlend mode="normal" in="SourceGraphic" in2="effect1_backgroundBlur_499_2" result="shape"/>
</filter>
<filter id="filter5_d_499_2" x="943.222" y="802.593" width="128.185" height="128.186" filterUnits="userSpaceOnUse" color-interpolation-filters="sRGB">
<feFlood flood-opacity="0" result="BackgroundImageFix"/>
<feColorMatrix in="SourceAlpha" type="matrix" values="0 0 0 0 0 0 0 0 0 0 0 0 0 0 0 0 0 0 127 0" result="hardAlpha"/>
<feOffset dy="4"/>
<feGaussianBlur stdDeviation="2"/>
<feComposite in2="hardAlpha" operator="out"/>
<feColorMatrix type="matrix" values="0 0 0 0 0.0745098 0 0 0 0 0.0980392 0 0 0 0 0.196078 0 0 0 0.74 0"/>
<feBlend mode="normal" in2="BackgroundImageFix" result="effect1_dropShadow_499_2"/>
<feBlend mode="normal" in="SourceGraphic" in2="effect1_dropShadow_499_2" result="shape"/>
</filter>
<filter id="filter6_b_499_2" x="283.222" y="825.073" width="56.8889" height="73.1855" filterUnits="userSpaceOnUse" color-interpolation-filters="sRGB">
<feFlood flood-opacity="0" result="BackgroundImageFix"/>
<feGaussianBlur in="BackgroundImageFix" stdDeviation="2"/>
<feComposite in2="SourceAlpha" operator="in" result="effect1_backgroundBlur_499_2"/>
<feBlend mode="normal" in="SourceGraphic" in2="effect1_backgroundBlur_499_2" result="shape"/>
</filter>
<filter id="filter7_d_499_2" x="152.852" y="802.593" width="128.185" height="128.186" filterUnits="userSpaceOnUse" color-interpolation-filters="sRGB">
<feFlood flood-opacity="0" result="BackgroundImageFix"/>
<feColorMatrix in="SourceAlpha" type="matrix" values="0 0 0 0 0 0 0 0 0 0 0 0 0 0 0 0 0 0 127 0" result="hardAlpha"/>
<feOffset dy="4"/>
<feGaussianBlur stdDeviation="2"/>
<feComposite in2="hardAlpha" operator="out"/>
<feColorMatrix type="matrix" values="0 0 0 0 0.0745098 0 0 0 0 0.0980392 0 0 0 0 0.196078 0 0 0 0.74 0"/>
<feBlend mode="normal" in2="BackgroundImageFix" result="effect1_dropShadow_499_2"/>
<feBlend mode="normal" in="SourceGraphic" in2="effect1_dropShadow_499_2" result="shape"/>
</filter>
<filter id="filter8_b_499_2" x="385.074" y="825.073" width="56.8889" height="73.1855" filterUnits="userSpaceOnUse" color-interpolation-filters="sRGB">
<feFlood flood-opacity="0" result="BackgroundImageFix"/>
<feGaussianBlur in="BackgroundImageFix" stdDeviation="2"/>
<feComposite in2="SourceAlpha" operator="in" result="effect1_backgroundBlur_499_2"/>
<feBlend mode="normal" in="SourceGraphic" in2="effect1_backgroundBlur_499_2" result="shape"/>
</filter>
<filter id="filter9_d_499_2" x="444.148" y="802.593" width="128.185" height="128.186" filterUnits="userSpaceOnUse" color-interpolation-filters="sRGB">
<feFlood flood-opacity="0" result="BackgroundImageFix"/>
<feColorMatrix in="SourceAlpha" type="matrix" values="0 0 0 0 0 0 0 0 0 0 0 0 0 0 0 0 0 0 127 0" result="hardAlpha"/>
<feOffset dy="4"/>
<feGaussianBlur stdDeviation="2"/>
<feComposite in2="hardAlpha" operator="out"/>
<feColorMatrix type="matrix" values="0 0 0 0 0.0745098 0 0 0 0 0.0980392 0 0 0 0 0.196078 0 0 0 0.74 0"/>
<feBlend mode="normal" in2="BackgroundImageFix" result="effect1_dropShadow_499_2"/>
<feBlend mode="normal" in="SourceGraphic" in2="effect1_dropShadow_499_2" result="shape"/>
</filter>
<filter id="filter10_b_499_2" x="884.148" y="181.37" width="56.8887" height="73.1855" filterUnits="userSpaceOnUse" color-interpolation-filters="sRGB">
<feFlood flood-opacity="0" result="BackgroundImageFix"/>
<feGaussianBlur in="BackgroundImageFix" stdDeviation="2"/>
<feComposite in2="SourceAlpha" operator="in" result="effect1_backgroundBlur_499_2"/>
<feBlend mode="normal" in="SourceGraphic" in2="effect1_backgroundBlur_499_2" result="shape"/>
</filter>
<filter id="filter11_d_499_2" x="943.222" y="158.889" width="128.185" height="128.186" filterUnits="userSpaceOnUse" color-interpolation-filters="sRGB">
<feFlood flood-opacity="0" result="BackgroundImageFix"/>
<feColorMatrix in="SourceAlpha" type="matrix" values="0 0 0 0 0 0 0 0 0 0 0 0 0 0 0 0 0 0 127 0" result="hardAlpha"/>
<feOffset dy="4"/>
<feGaussianBlur stdDeviation="2"/>
<feComposite in2="hardAlpha" operator="out"/>
<feColorMatrix type="matrix" values="0 0 0 0 0.0745098 0 0 0 0 0.0980392 0 0 0 0 0.196078 0 0 0 0.74 0"/>
<feBlend mode="normal" in2="BackgroundImageFix" result="effect1_dropShadow_499_2"/>
<feBlend mode="normal" in="SourceGraphic" in2="effect1_dropShadow_499_2" result="shape"/>
</filter>
<filter id="filter12_d_499_2" x="151.852" y="157.89" width="421.481" height="107.777" filterUnits="userSpaceOnUse" color-interpolation-filters="sRGB">
<feFlood flood-opacity="0" result="BackgroundImageFix"/>
<feColorMatrix in="SourceAlpha" type="matrix" values="0 0 0 0 0 0 0 0 0 0 0 0 0 0 0 0 0 0 127 0" result="hardAlpha"/>
<feOffset dy="4"/>
<feGaussianBlur stdDeviation="2.5"/>
<feComposite in2="hardAlpha" operator="out"/>
<feColorMatrix type="matrix" values="0 0 0 0 0.0745098 0 0 0 0 0.0980392 0 0 0 0 0.196078 0 0 0 1 0"/>
<feBlend mode="normal" in2="BackgroundImageFix" result="effect1_dropShadow_499_2"/>
<feBlend mode="normal" in="SourceGraphic" in2="effect1_dropShadow_499_2" result="shape"/>
</filter>
<filter id="filter13_d_499_2" x="1202.96" y="157.889" width="130.68" height="130.681" filterUnits="userSpaceOnUse" color-interpolation-filters="sRGB">
<feFlood flood-opacity="0" result="BackgroundImageFix"/>
<feColorMatrix in="SourceAlpha" type="matrix" values="0 0 0 0 0 0 0 0 0 0 0 0 0 0 0 0 0 0 127 0" result="hardAlpha"/>
<feOffset dy="4"/>
<feGaussianBlur stdDeviation="2.5"/>
<feComposite in2="hardAlpha" operator="out"/>
<feColorMatrix type="matrix" values="0 0 0 0 0.0745098 0 0 0 0 0.0980392 0 0 0 0 0.196078 0 0 0 0.74 0"/>
<feBlend mode="normal" in2="BackgroundImageFix" result="effect1_dropShadow_499_2"/>
<feBlend mode="normal" in="SourceGraphic" in2="effect1_dropShadow_499_2" result="shape"/>
</filter>
<filter id="filter14_d_499_2" x="1202.96" y="316.282" width="130.68" height="130.681" filterUnits="userSpaceOnUse" color-interpolation-filters="sRGB">
<feFlood flood-opacity="0" result="BackgroundImageFix"/>
<feColorMatrix in="SourceAlpha" type="matrix" values="0 0 0 0 0 0 0 0 0 0 0 0 0 0 0 0 0 0 127 0" result="hardAlpha"/>
<feOffset dy="4"/>
<feGaussianBlur stdDeviation="2.5"/>
<feComposite in2="hardAlpha" operator="out"/>
<feColorMatrix type="matrix" values="0 0 0 0 0.0745098 0 0 0 0 0.0980392 0 0 0 0 0.196078 0 0 0 0.74 0"/>
<feBlend mode="normal" in2="BackgroundImageFix" result="effect1_dropShadow_499_2"/>
<feBlend mode="normal" in="SourceGraphic" in2="effect1_dropShadow_499_2" result="shape"/>
</filter>
<filter id="filter15_d_499_2" x="1361.36" y="316.282" width="130.68" height="130.681" filterUnits="userSpaceOnUse" color-interpolation-filters="sRGB">
<feFlood flood-opacity="0" result="BackgroundImageFix"/>
<feColorMatrix in="SourceAlpha" type="matrix" values="0 0 0 0 0 0 0 0 0 0 0 0 0 0 0 0 0 0 127 0" result="hardAlpha"/>
<feOffset dy="4"/>
<feGaussianBlur stdDeviation="2.5"/>
<feComposite in2="hardAlpha" operator="out"/>
<feColorMatrix type="matrix" values="0 0 0 0 0.0745098 0 0 0 0 0.0980392 0 0 0 0 0.196078 0 0 0 0.74 0"/>
<feBlend mode="normal" in2="BackgroundImageFix" result="effect1_dropShadow_499_2"/>
<feBlend mode="normal" in="SourceGraphic" in2="effect1_dropShadow_499_2" result="shape"/>
</filter>
<filter id="filter16_d_499_2" x="1520.74" y="157.889" width="130.68" height="130.681" filterUnits="userSpaceOnUse" color-interpolation-filters="sRGB">
<feFlood flood-opacity="0" result="BackgroundImageFix"/>
<feColorMatrix in="SourceAlpha" type="matrix" values="0 0 0 0 0 0 0 0 0 0 0 0 0 0 0 0 0 0 127 0" result="hardAlpha"/>
<feOffset dy="4"/>
<feGaussianBlur stdDeviation="2.5"/>
<feComposite in2="hardAlpha" operator="out"/>
<feColorMatrix type="matrix" values="0 0 0 0 0.0745098 0 0 0 0 0.0980392 0 0 0 0 0.196078 0 0 0 0.74 0"/>
<feBlend mode="normal" in2="BackgroundImageFix" result="effect1_dropShadow_499_2"/>
<feBlend mode="normal" in="SourceGraphic" in2="effect1_dropShadow_499_2" result="shape"/>
</filter>
<filter id="filter17_d_499_2" x="1520.74" y="316.282" width="130.68" height="130.681" filterUnits="userSpaceOnUse" color-interpolation-filters="sRGB">
<feFlood flood-opacity="0" result="BackgroundImageFix"/>
<feColorMatrix in="SourceAlpha" type="matrix" values="0 0 0 0 0 0 0 0 0 0 0 0 0 0 0 0 0 0 127 0" result="hardAlpha"/>
<feOffset dy="4"/>
<feGaussianBlur stdDeviation="2.5"/>
<feComposite in2="hardAlpha" operator="out"/>
<feColorMatrix type="matrix" values="0 0 0 0 0.0745098 0 0 0 0 0.0980392 0 0 0 0 0.196078 0 0 0 0.74 0"/>
<feBlend mode="normal" in2="BackgroundImageFix" result="effect1_dropShadow_499_2"/>
<feBlend mode="normal" in="SourceGraphic" in2="effect1_dropShadow_499_2" result="shape"/>
</filter>
<filter id="filter18_d_499_2" x="1679.14" y="316.282" width="130.68" height="130.681" filterUnits="userSpaceOnUse" color-interpolation-filters="sRGB">
<feFlood flood-opacity="0" result="BackgroundImageFix"/>
<feColorMatrix in="SourceAlpha" type="matrix" values="0 0 0 0 0 0 0 0 0 0 0 0 0 0 0 0 0 0 127 0" result="hardAlpha"/>
<feOffset dy="4"/>
<feGaussianBlur stdDeviation="2.5"/>
<feComposite in2="hardAlpha" operator="out"/>
<feColorMatrix type="matrix" values="0 0 0 0 0.0745098 0 0 0 0 0.0980392 0 0 0 0 0.196078 0 0 0 0.74 0"/>
<feBlend mode="normal" in2="BackgroundImageFix" result="effect1_dropShadow_499_2"/>
<feBlend mode="normal" in="SourceGraphic" in2="effect1_dropShadow_499_2" result="shape"/>
</filter>
<filter id="filter19_d_499_2" x="1838.52" y="157.889" width="130.68" height="130.681" filterUnits="userSpaceOnUse" color-interpolation-filters="sRGB">
<feFlood flood-opacity="0" result="BackgroundImageFix"/>
<feColorMatrix in="SourceAlpha" type="matrix" values="0 0 0 0 0 0 0 0 0 0 0 0 0 0 0 0 0 0 127 0" result="hardAlpha"/>
<feOffset dy="4"/>
<feGaussianBlur stdDeviation="2.5"/>
<feComposite in2="hardAlpha" operator="out"/>
<feColorMatrix type="matrix" values="0 0 0 0 0.0745098 0 0 0 0 0.0980392 0 0 0 0 0.196078 0 0 0 0.74 0"/>
<feBlend mode="normal" in2="BackgroundImageFix" result="effect1_dropShadow_499_2"/>
<feBlend mode="normal" in="SourceGraphic" in2="effect1_dropShadow_499_2" result="shape"/>
</filter>
<filter id="filter20_d_499_2" x="1838.52" y="316.282" width="130.68" height="130.681" filterUnits="userSpaceOnUse" color-interpolation-filters="sRGB">
<feFlood flood-opacity="0" result="BackgroundImageFix"/>
<feColorMatrix in="SourceAlpha" type="matrix" values="0 0 0 0 0 0 0 0 0 0 0 0 0 0 0 0 0 0 127 0" result="hardAlpha"/>
<feOffset dy="4"/>
<feGaussianBlur stdDeviation="2.5"/>
<feComposite in2="hardAlpha" operator="out"/>
<feColorMatrix type="matrix" values="0 0 0 0 0.0745098 0 0 0 0 0.0980392 0 0 0 0 0.196078 0 0 0 0.74 0"/>
<feBlend mode="normal" in2="BackgroundImageFix" result="effect1_dropShadow_499_2"/>
<feBlend mode="normal" in="SourceGraphic" in2="effect1_dropShadow_499_2" result="shape"/>
</filter>
<filter id="filter21_d_499_2" x="1520.74" y="642.703" width="130.68" height="130.681" filterUnits="userSpaceOnUse" color-interpolation-filters="sRGB">
<feFlood flood-opacity="0" result="BackgroundImageFix"/>
<feColorMatrix in="SourceAlpha" type="matrix" values="0 0 0 0 0 0 0 0 0 0 0 0 0 0 0 0 0 0 127 0" result="hardAlpha"/>
<feOffset dy="4"/>
<feGaussianBlur stdDeviation="2.5"/>
<feComposite in2="hardAlpha" operator="out"/>
<feColorMatrix type="matrix" values="0 0 0 0 0.0745098 0 0 0 0 0.0980392 0 0 0 0 0.196078 0 0 0 0.74 0"/>
<feBlend mode="normal" in2="BackgroundImageFix" result="effect1_dropShadow_499_2"/>
<feBlend mode="normal" in="SourceGraphic" in2="effect1_dropShadow_499_2" result="shape"/>
</filter>
<filter id="filter22_d_499_2" x="1520.74" y="801.097" width="130.68" height="130.681" filterUnits="userSpaceOnUse" color-interpolation-filters="sRGB">
<feFlood flood-opacity="0" result="BackgroundImageFix"/>
<feColorMatrix in="SourceAlpha" type="matrix" values="0 0 0 0 0 0 0 0 0 0 0 0 0 0 0 0 0 0 127 0" result="hardAlpha"/>
<feOffset dy="4"/>
<feGaussianBlur stdDeviation="2.5"/>
<feComposite in2="hardAlpha" operator="out"/>
<feColorMatrix type="matrix" values="0 0 0 0 0.0745098 0 0 0 0 0.0980392 0 0 0 0 0.196078 0 0 0 0.74 0"/>
<feBlend mode="normal" in2="BackgroundImageFix" result="effect1_dropShadow_499_2"/>
<feBlend mode="normal" in="SourceGraphic" in2="effect1_dropShadow_499_2" result="shape"/>
</filter>
<filter id="filter23_d_499_2" x="1679.14" y="801.097" width="130.68" height="130.681" filterUnits="userSpaceOnUse" color-interpolation-filters="sRGB">
<feFlood flood-opacity="0" result="BackgroundImageFix"/>
<feColorMatrix in="SourceAlpha" type="matrix" values="0 0 0 0 0 0 0 0 0 0 0 0 0 0 0 0 0 0 127 0" result="hardAlpha"/>
<feOffset dy="4"/>
<feGaussianBlur stdDeviation="2.5"/>
<feComposite in2="hardAlpha" operator="out"/>
<feColorMatrix type="matrix" values="0 0 0 0 0.0745098 0 0 0 0 0.0980392 0 0 0 0 0.196078 0 0 0 0.74 0"/>
<feBlend mode="normal" in2="BackgroundImageFix" result="effect1_dropShadow_499_2"/>
<feBlend mode="normal" in="SourceGraphic" in2="effect1_dropShadow_499_2" result="shape"/>
</filter>
<filter id="filter24_d_499_2" x="1838.52" y="642.703" width="130.68" height="130.681" filterUnits="userSpaceOnUse" color-interpolation-filters="sRGB">
<feFlood flood-opacity="0" result="BackgroundImageFix"/>
<feColorMatrix in="SourceAlpha" type="matrix" values="0 0 0 0 0 0 0 0 0 0 0 0 0 0 0 0 0 0 127 0" result="hardAlpha"/>
<feOffset dy="4"/>
<feGaussianBlur stdDeviation="2.5"/>
<feComposite in2="hardAlpha" operator="out"/>
<feColorMatrix type="matrix" values="0 0 0 0 0.0745098 0 0 0 0 0.0980392 0 0 0 0 0.196078 0 0 0 0.74 0"/>
<feBlend mode="normal" in2="BackgroundImageFix" result="effect1_dropShadow_499_2"/>
<feBlend mode="normal" in="SourceGraphic" in2="effect1_dropShadow_499_2" result="shape"/>
</filter>
<filter id="filter25_d_499_2" x="1838.52" y="801.097" width="130.68" height="130.681" filterUnits="userSpaceOnUse" color-interpolation-filters="sRGB">
<feFlood flood-opacity="0" result="BackgroundImageFix"/>
<feColorMatrix in="SourceAlpha" type="matrix" values="0 0 0 0 0 0 0 0 0 0 0 0 0 0 0 0 0 0 127 0" result="hardAlpha"/>
<feOffset dy="4"/>
<feGaussianBlur stdDeviation="2.5"/>
<feComposite in2="hardAlpha" operator="out"/>
<feColorMatrix type="matrix" values="0 0 0 0 0.0745098 0 0 0 0 0.0980392 0 0 0 0 0.196078 0 0 0 0.74 0"/>
<feBlend mode="normal" in2="BackgroundImageFix" result="effect1_dropShadow_499_2"/>
<feBlend mode="normal" in="SourceGraphic" in2="effect1_dropShadow_499_2" result="shape"/>
</filter>
<filter id="filter26_d_499_2" x="1202.96" y="642.703" width="130.681" height="130.681" filterUnits="userSpaceOnUse" color-interpolation-filters="sRGB">
<feFlood flood-opacity="0" result="BackgroundImageFix"/>
<feColorMatrix in="SourceAlpha" type="matrix" values="0 0 0 0 0 0 0 0 0 0 0 0 0 0 0 0 0 0 127 0" result="hardAlpha"/>
<feOffset dy="4"/>
<feGaussianBlur stdDeviation="2.5"/>
<feComposite in2="hardAlpha" operator="out"/>
<feColorMatrix type="matrix" values="0 0 0 0 0.0745098 0 0 0 0 0.0980392 0 0 0 0 0.196078 0 0 0 0.74 0"/>
<feBlend mode="normal" in2="BackgroundImageFix" result="effect1_dropShadow_499_2"/>
<feBlend mode="normal" in="SourceGraphic" in2="effect1_dropShadow_499_2" result="shape"/>
</filter>
<filter id="filter27_d_499_2" x="1202.96" y="801.097" width="130.681" height="130.681" filterUnits="userSpaceOnUse" color-interpolation-filters="sRGB">
<feFlood flood-opacity="0" result="BackgroundImageFix"/>
<feColorMatrix in="SourceAlpha" type="matrix" values="0 0 0 0 0 0 0 0 0 0 0 0 0 0 0 0 0 0 127 0" result="hardAlpha"/>
<feOffset dy="4"/>
<feGaussianBlur stdDeviation="2.5"/>
<feComposite in2="hardAlpha" operator="out"/>
<feColorMatrix type="matrix" values="0 0 0 0 0.0745098 0 0 0 0 0.0980392 0 0 0 0 0.196078 0 0 0 0.74 0"/>
<feBlend mode="normal" in2="BackgroundImageFix" result="effect1_dropShadow_499_2"/>
<feBlend mode="normal" in="SourceGraphic" in2="effect1_dropShadow_499_2" result="shape"/>
</filter>
<filter id="filter28_d_499_2" x="1361.36" y="801.097" width="130.681" height="130.681" filterUnits="userSpaceOnUse" color-interpolation-filters="sRGB">
<feFlood flood-opacity="0" result="BackgroundImageFix"/>
<feColorMatrix in="SourceAlpha" type="matrix" values="0 0 0 0 0 0 0 0 0 0 0 0 0 0 0 0 0 0 127 0" result="hardAlpha"/>
<feOffset dy="4"/>
<feGaussianBlur stdDeviation="2.5"/>
<feComposite in2="hardAlpha" operator="out"/>
<feColorMatrix type="matrix" values="0 0 0 0 0.0745098 0 0 0 0 0.0980392 0 0 0 0 0.196078 0 0 0 0.74 0"/>
<feBlend mode="normal" in2="BackgroundImageFix" result="effect1_dropShadow_499_2"/>
<feBlend mode="normal" in="SourceGraphic" in2="effect1_dropShadow_499_2" result="shape"/>
</filter>
<linearGradient id="paint0_linear_499_2" x1="2750" y1="5.80325e-05" x2="-209.815" y2="1045" gradientUnits="userSpaceOnUse">
<stop offset="0.459922" stop-color="#273360"/>
<stop offset="1" stop-color="#404C7B"/>
</linearGradient>
</defs>
</svg>
