<svg width="60" height="60" viewBox="0 0 60 60" fill="none" xmlns="http://www.w3.org/2000/svg">
<path fill-rule="evenodd" clip-rule="evenodd" d="M39.9682 8C47.7629 8 53 13.2727 53 21.1173V39.228C53 47.0727 47.7629 52.3453 39.9659 52.3453H20.0295C12.2348 52.3453 7 47.0727 7 39.228V21.1173C7 13.2727 12.2348 8 20.0295 8H39.9682ZM39.9682 11.3259H20.0295C14.2105 11.3259 10.45 15.1684 10.45 21.1173V39.228C10.45 45.1769 14.2105 49.0194 20.0295 49.0194H39.9659C45.7872 49.0194 49.55 45.1769 49.55 39.228V21.1173C49.55 15.1684 45.7872 11.3259 39.9682 11.3259ZM39.4059 23.7359C40.0798 24.3856 40.0798 25.4366 39.4059 26.0862L28.49 36.6094C28.1542 36.9353 27.7127 37.0972 27.2711 37.0972C26.8318 37.0972 26.3878 36.9353 26.052 36.6094L20.5918 31.3478C19.9179 30.6982 19.9179 29.6472 20.5918 28.9975C21.2658 28.3479 22.3559 28.3479 23.0298 28.9975L27.2711 33.0817L36.9678 23.7359C37.6417 23.0863 38.732 23.0863 39.4059 23.7359Z" fill="white"/>
</svg>
