<svg width="18" height="18" viewBox="0 0 18 18" fill="none" xmlns="http://www.w3.org/2000/svg">
<path d="M15.3438 5.75C15.9688 5.28125 16.5312 4.71875 16.9688 4.0625C16.4062 4.3125 15.75 4.5 15.0938 4.5625C15.7812 4.15625 16.2812 3.53125 16.5312 2.75C15.9062 3.125 15.1875 3.40625 14.4688 3.5625C13.8438 2.90625 13 2.53125 12.0625 2.53125C10.25 2.53125 8.78125 4 8.78125 5.8125C8.78125 6.0625 8.8125 6.3125 8.875 6.5625C6.15625 6.40625 3.71875 5.09375 2.09375 3.125C1.8125 3.59375 1.65625 4.15625 1.65625 4.78125C1.65625 5.90625 2.21875 6.90625 3.125 7.5C2.59375 7.46875 2.0625 7.34375 1.625 7.09375V7.125C1.625 8.71875 2.75 10.0312 4.25 10.3438C4 10.4062 3.6875 10.4688 3.40625 10.4688C3.1875 10.4688 3 10.4375 2.78125 10.4062C3.1875 11.7188 4.40625 12.6562 5.84375 12.6875C4.71875 13.5625 3.3125 14.0938 1.78125 14.0938C1.5 14.0938 1.25 14.0625 1 14.0312C2.4375 14.9688 4.15625 15.5 6.03125 15.5C12.0625 15.5 15.3438 10.5312 15.3438 6.1875C15.3438 6.03125 15.3438 5.90625 15.3438 5.75Z" fill="#4C88CC"/>
</svg>
